<?xml version="1.0" encoding="utf-8"?>
<!-- Generator: Adobe Illustrator 24.3.0, SVG Export Plug-In . SVG Version: 6.00 Build 0)  -->
<svg version="1.1" id="Layer_1" xmlns="http://www.w3.org/2000/svg" xmlns:xlink="http://www.w3.org/1999/xlink" x="0px" y="0px"
	 viewBox="0 0 420.2 406.4" style="enable-background:new 0 0 420.2 406.4;" xml:space="preserve">
<style type="text/css">
	.st0{opacity:0.24;fill:#35A7FF;enable-background:new    ;}
	.st1{opacity:0.42;fill:#35A7FF;enable-background:new    ;}
	.st2{fill:#606161;}
	.st3{opacity:0.52;fill:#35A7FF;enable-background:new    ;}
	.st4{fill:url(#SVGID_1_);}
	.st5{fill:url(#SVGID_2_);}
	.st6{fill:url(#SVGID_3_);}
	.st7{fill:url(#SVGID_4_);}
	.st8{fill:url(#SVGID_5_);}
	.st9{fill:url(#SVGID_6_);}
	.st10{fill:#FFFFFF;}
	.st11{fill:url(#SVGID_7_);}
	.st12{fill:#35A7FF;}
	.st13{fill:url(#SVGID_8_);}
	.st14{fill:url(#SVGID_9_);}
	.st15{fill:url(#SVGID_10_);}
	.st16{fill:url(#SVGID_11_);}
	.st17{fill:url(#SVGID_12_);}
	.st18{fill:url(#SVGID_13_);}
	.st19{fill:url(#SVGID_14_);}
	.st20{fill:url(#SVGID_15_);}
</style>
<path class="st0" d="M403,265.7c-12.1,17.3-29,30.6-42.4,47c-19.7,24-32.4,55.2-59,71.2c-12.6,7.6-27.2,10.9-41.4,14.2
	c-22.9,5.3-46.7,10.6-69.9,6.1c-17.7-3.4-33.8-12.4-49.6-21.2l-12.5-7c-2.8-1.6-5.5-3.1-8.3-4.6l-8.1-4.5
	c-23.8-13.4-47.4-27.4-67.4-45.9c-22.3-20.5-40.1-47.5-43.8-77.6c-4.3-34.8,12.1-71.4,40.9-91.4c15.8-11,34.7-17.1,50.2-28.5
	c24.5-18,38-46.8,54.8-72.1c31.2-46.9,91.2-69.3,141.7-36c19.6,12.9,34.5,32.2,45.4,53c9.2,17.6,16,36.6,28.3,52.2
	c14,17.8,34.4,30.2,46.6,49.2C426.9,198.3,422.5,237.8,403,265.7z"/>
<path class="st1" d="M144,373c-1.5,1.6,0.9,3.9,3,4.6c13.4,5.1,27.7,7.8,42.1,7.8l-2.5,4.2c22.6,6.3,46.4,6.4,69,0.4l-3.5-5.4
	l20.2-1c3.2-0.1,14.5,1.2,16.6-1.7c6.1-8.2-18.8-8.5-21.5-8.6c-26.6-1.1-53.3-1.5-79.9-1.3c-7.3,0.1-14.5,0.2-21.8,0.4
	C162.3,372.4,146.1,370.7,144,373z"/>
<path class="st2" d="M257.6,299c-0.5,10.7-1.2,21.4-1.9,32.1c-0.2,5.4-0.9,10.8-2.1,16.1c-0.8,3.1-1.9,6.2-3.3,9.1
	c-0.6,1.2-1.5,2.6-2.9,2.8c-1.7,0.2-2.9-1.7-3.5-3.3c-3.1-8-3.1-16.8-3.3-25.3c-0.1-4.4-0.3-8.9-0.5-13.3
	c-0.3-5.4-0.9-11.1-4.5-15.1c-1.1-1.2-2.4-2.2-3.5-3.4c-4.4-5-3.1-13.4,1.7-18.1c3.7-3.6,14.4-8.5,19.6-5.5
	C259.4,278.5,257.9,293.2,257.6,299z"/>
<path class="st2" d="M226.6,280.6c1.5,2.5,2.3,5.3,2.1,8.2c-0.2,8.7-5.4,16.4-8,24.7c-3.9,12.5-1.7,26-1.3,39.2
	c0.2,1.8,0,3.6-0.7,5.4c-0.7,1.7-2.3,2.9-4.2,2.9c-1.3-0.2-2.5-1-3.4-2c-6.4-6.8-6.1-17.2-7.2-26.4c-1.2-10.3-4.4-20.2-7.1-30.2
	c-1.2-4.5-2.4-9.1-2.1-13.8s2.2-9.5,6.1-12.1C207.9,271.7,221.6,273.5,226.6,280.6z"/>
<rect x="107.5" y="255.4" class="st3" width="225.7" height="10.8"/>
<linearGradient id="SVGID_1_" gradientUnits="userSpaceOnUse" x1="315.9994" y1="412.13" x2="314.1093" y2="513.45" gradientTransform="matrix(1 0 0 1 -82.88 -319.57)">
	<stop  offset="0" style="stop-color:#FFFFFF;stop-opacity:0"/>
	<stop  offset="0.99" style="stop-color:#FFFFFF"/>
</linearGradient>
<rect x="217.1" y="174.8" class="st4" width="28.9" height="2.8"/>
<linearGradient id="SVGID_2_" gradientUnits="userSpaceOnUse" x1="333.51" y1="158.2746" x2="350.87" y2="158.2746" gradientTransform="matrix(1 0 0 -1 -82.88 406.25)">
	<stop  offset="0" style="stop-color:#E5C6D6"/>
	<stop  offset="0.42" style="stop-color:#EAD4D0"/>
	<stop  offset="1" style="stop-color:#F0E9CB"/>
</linearGradient>
<path class="st5" d="M266.9,248.4c0.7,2,1.4,4.1,0.9,6.2c-0.2,0.7-0.4,1.4-0.9,2c-2,3.1-6.7,3.6-10,1.7s-5.1-5.4-6-9
	c-0.4-1.2-0.5-2.5-0.4-3.7c0.3-2.2,1.7-4,3.2-5.6c2-2.1,5.7-4.8,8.4-2.3C264.7,239.9,265.8,245.4,266.9,248.4z"/>
<linearGradient id="SVGID_3_" gradientUnits="userSpaceOnUse" x1="267.38" y1="158.7578" x2="284.32" y2="158.7578" gradientTransform="matrix(1 0 0 -1 -82.88 406.25)">
	<stop  offset="0" style="stop-color:#E5C6D6"/>
	<stop  offset="0.42" style="stop-color:#EAD4D0"/>
	<stop  offset="1" style="stop-color:#F0E9CB"/>
</linearGradient>
<path class="st6" d="M185.1,247.8c-0.4,0.8-0.6,1.8-0.6,2.7c0.1,0.6,0.4,1.2,0.7,1.7c0.8,1.5,2,2.8,3.3,3.9c1.4,1.1,3.1,1.6,4.8,1.5
	c2.6-0.3,4.6-2.3,6-4.5c1.4-2.1,2.2-4.5,2.1-7.1c-0.2-2.7-1.5-5.2-3.7-6.7c-1.9-1.4-6-2.7-8.1-1.1S186.2,245.2,185.1,247.8z"/>
<linearGradient id="SVGID_4_" gradientUnits="userSpaceOnUse" x1="322.22" y1="226.6304" x2="330.0652" y2="226.6304" gradientTransform="matrix(1 0 0 -1 -82.88 406.25)">
	<stop  offset="0" style="stop-color:#E5C6D6"/>
	<stop  offset="0.42" style="stop-color:#EAD4D0"/>
	<stop  offset="1" style="stop-color:#F0E9CB"/>
</linearGradient>
<path class="st7" d="M244.2,174.3c0.7-0.2,1.5-0.1,2.1,0.4c0.4,0.5,0.7,1.1,0.7,1.7c0.3,1.3,0.3,2.6,0.1,3.9
	c-0.2,1.3-0.8,2.5-1.8,3.3c-0.8,0.6-1.6,1-2.5,1.2c-0.7,0.3-1.5,0.3-2.2,0.1c-0.6-0.4-1-1.1-1.1-1.9
	C238.8,179.1,240,175.1,244.2,174.3z"/>
<linearGradient id="SVGID_5_" gradientUnits="userSpaceOnUse" x1="287.94" y1="228.1174" x2="295.96" y2="228.1174" gradientTransform="matrix(1 0 0 -1 -82.88 406.25)">
	<stop  offset="0" style="stop-color:#E5C6D6"/>
	<stop  offset="0.42" style="stop-color:#EAD4D0"/>
	<stop  offset="1" style="stop-color:#F0E9CB"/>
</linearGradient>
<path class="st8" d="M207.8,173c-0.4-0.1-0.8-0.1-1.2,0c-0.9,0.4-1.4,1.3-1.4,2.3c-0.1,0.9,0,1.9,0.2,2.8c0.2,1.5,0.8,3,1.8,4.2
	c1.1,1.2,2.8,1.5,4.1,0.7C215.5,180,211.5,173.8,207.8,173z"/>
<linearGradient id="SVGID_6_" gradientUnits="userSpaceOnUse" x1="301.2814" y1="207.6098" x2="317.7914" y2="207.6098" gradientTransform="matrix(1 0 0 -1 -82.88 406.25)">
	<stop  offset="0" style="stop-color:#E5C6D6"/>
	<stop  offset="0.42" style="stop-color:#EAD4D0"/>
	<stop  offset="1" style="stop-color:#F0E9CB"/>
</linearGradient>
<path class="st9" d="M234.7,200.9c0.2,0.9,0.3,1.8,0.2,2.8c-0.4,2.6-2.9,4.4-5.5,4.7s-5.1-0.5-7.5-1.5c-0.7-0.2-1.4-0.6-2-1.1
	c-0.6-0.6-1-1.4-1.1-2.2c-0.3-1.4-0.4-2.9-0.3-4.4l0.2-5.2c0-1,0.1-2,0.6-2.9c1-1.7,3.3-2,5.3-2.1c2.6-0.1,6.5,0,8.3,2.4
	S234.2,198.1,234.7,200.9z"/>
<path class="st2" d="M242.7,158.8c0.8,2.2,1.1,4.5,0.8,6.8c-0.2,5.3-0.8,10.6-1.7,15.8c-0.7,3.9-1.7,8.1-4.8,10.6
	c-0.9,0.6-1.7,1.3-2.5,2c-0.5,0.6-0.9,1.3-1.4,1.9c-2.5,3.2-7.6,3.2-11.1,1.1s-5.7-5.7-7.8-9.2c-2.2-3.9-4.5-7.9-4.9-12.4
	c-0.3-3.5,0.5-7.3-0.9-10.6c-1-2.4-3.1-4.4-3.5-6.9c-0.2-1.7,0-3.5,0.6-5.1c0.8-2.9,2-6.3,5-7.1c2.1-0.6,4.4,0.5,6.6,0.6
	c2.8,0.1,5.7-1.5,8.4-0.6c3.5,1.2,5,5.2,8.5,6.5S241.1,155.1,242.7,158.8z"/>
<path class="st10" d="M254.2,210c-10.1-8.4-24.8-8.2-37.8-6.4c-5.4,0.7-10.9,1.7-15.6,4.4c-7.9,4.5-12.6,13.2-15.1,22
	c-1.3,4.7-2,10,0.6,14.1c2.8,4.2,8.2,5.7,13.2,6.3c0.8,0,1.5,0.2,2.2,0.6c0.7,0.6,1.1,1.5,1.2,2.4c1.4,7.3-1.4,15.5,2.3,21.9
	c3.6,6.2,11.7,7.8,18.9,8.4c9.2,0.7,19.3,0.5,26.8-5c1.2-0.8,2.3-1.9,3.1-3.2c1.2-2.1,1.3-4.7,1.3-7.1c0.1-5.3-1.9-16.1,0.7-20.8
	c2.2-3.9,8.4-3.9,10.6-8.4C270.8,230.6,260.4,215.2,254.2,210z"/>
<linearGradient id="SVGID_7_" gradientUnits="userSpaceOnUse" x1="280.58" y1="128.4634" x2="334.6593" y2="128.4634" gradientTransform="matrix(1 0 0 -1 -82.88 406.25)">
	<stop  offset="0" style="stop-color:#010101;stop-opacity:0"/>
	<stop  offset="0.95" style="stop-color:#010101"/>
</linearGradient>
<path class="st11" d="M217.5,278.1l0.1,11.4c0,0.4,0,0.9-0.2,1.3c-0.3,0.4-0.8,0.7-1.3,0.7c-3.1,0.7-6.3,0.3-9.5,0.3
	s-6.6,0.6-8.8,2.8c3.5,2.5,7.9,3.2,12.2,3.8c6.3,0.8,12.7,1.3,19,1.5c4.1,0.3,8.2,0.1,12.3-0.6c3.6-0.7,6.9-2.3,9.8-4.5
	c-2.8-3-7.4-2.9-11.5-2.9c-4,0-7.9-0.2-11.9-0.7c-0.9,0-1.8-0.3-2.4-1c-0.3-0.6-0.5-1.3-0.4-2c0.1-2.5,0.4-5,1-7.5
	c0.1-0.8,0.4-1.6,1-2.2c0.9-0.8,2-1.2,3.2-1.3c4.6-0.8,9.2-2,13.5-3.7c1.8-0.6,3.5-1.5,5-2.7c3.9-3.6,3.8-9.8,2.9-15
	c-7.3,4.2-15.4,6.5-23.8,6.8c-5.7,0.2-18.2-2.3-22.2,3.2c-2,2.8,0.1,5.4,2.3,7.3C208.5,273.8,217.5,278,217.5,278.1z"/>
<path class="st12" d="M214.2,226.4H238c9.3,0,16.8,7.5,16.8,16.8v7.1c0,9.3-7.5,16.8-16.8,16.8h-23.8c-9.3,0-16.8-7.5-16.8-16.8
	v-7.1C197.4,233.9,205,226.4,214.2,226.4z"/>
<linearGradient id="SVGID_8_" gradientUnits="userSpaceOnUse" x1="197.45" y1="161.245" x2="254.83" y2="161.245" gradientTransform="matrix(1 0 0 -1 0 408)">
	<stop  offset="0" style="stop-color:#010101;stop-opacity:0"/>
	<stop  offset="0.95" style="stop-color:#010101"/>
</linearGradient>
<path class="st13" d="M214.2,226.4H238c9.3,0,16.8,7.5,16.8,16.8v7.1c0,9.3-7.5,16.8-16.8,16.8h-23.8c-9.3,0-16.8-7.5-16.8-16.8
	v-7.1C197.4,233.9,205,226.4,214.2,226.4z"/>
<path class="st12" d="M214.2,230.2H238c9.3,0,16.8,7.5,16.8,16.8v7.1c0,9.3-7.5,16.8-16.8,16.8h-23.8c-9.3,0-16.8-7.5-16.8-16.8V247
	C197.4,237.7,205,230.2,214.2,230.2z"/>
<linearGradient id="SVGID_9_" gradientUnits="userSpaceOnUse" x1="308.9236" y1="171.5499" x2="307.8236" y2="113.2499" gradientTransform="matrix(1 0 0 -1 -82.88 406.25)">
	<stop  offset="0" style="stop-color:#010101;stop-opacity:0"/>
	<stop  offset="0.95" style="stop-color:#010101"/>
</linearGradient>
<path class="st14" d="M235,252.6c-1.7,0.8-3.5,1.3-5.4,1.6c-5,0.9-10.8,0.7-14.4-2.9c-0.6-0.6-1-1.2-1.4-1.9c-1-2.4,0.3-5.4,2.5-6.9
	s4.9-1.9,7.5-2.1c3.2-0.2,9.3-0.7,12.1,1.5C239.3,244.5,238.8,250.8,235,252.6z"/>
<path class="st10" d="M225.2,311L225.2,311c-2.2,0-3.9-1.8-3.9-3.9v-56.8c0-2.2,1.8-3.9,3.9-3.9h0c2.2,0,3.9,1.8,3.9,3.9v56.8
	C229.1,309.3,227.3,311,225.2,311z"/>
<path class="st12" d="M249.3,356c2,1.6,2.5,4.5,3.4,7c1.2,3.4,3.5,6.5,3.8,10.1c0.1,1.1,0,2.1-0.5,3.1c-0.9,1.5-2.6,2.5-4.3,2.4
	c-1.8,0-3.5-0.6-4.9-1.5c-2.6-1.6-4.8-3.8-6.2-6.4c-0.8-1.3-1.2-2.7-1.4-4.2C238.6,362.1,243.3,351.2,249.3,356z"/>
<path class="st2" d="M253,375.1c0.3,0.5,0.3,1.2,0,1.7c-0.2,0.2-0.5,0.4-0.9,0.5c-1.4,0.3-2.8,0-4-0.7c-1.2-0.7-2.3-1.6-3.2-2.6
	c-1.5-1.3-2.8-2.8-3.9-4.4c-1.1-1.7-1.6-3.7-1.3-5.6c1.1-5.4,5.8-0.6,7.6,1.4C249.8,368.2,251.8,371.5,253,375.1z"/>
<path class="st12" d="M210.1,356.2c-2,1.6-2.5,4.5-3.4,7c-1.2,3.4-3.5,6.5-3.8,10.1c-0.1,1.1,0,2.2,0.5,3.1c0.9,1.5,2.6,2.4,4.3,2.4
	c1.8,0,3.5-0.6,4.9-1.5c2.6-1.5,4.8-3.8,6.2-6.4c0.8-1.3,1.2-2.7,1.4-4.2C220.8,362.2,216.1,351.3,210.1,356.2z"/>
<path class="st2" d="M205.9,375.5c-0.3,0.5-0.3,1.2,0,1.7c0.2,0.2,0.5,0.4,0.9,0.5c1.4,0.3,2.8,0,4-0.7c1.2-0.7,2.3-1.6,3.2-2.6
	c1.5-1.3,2.8-2.8,3.9-4.4c1.1-1.7,1.6-3.7,1.3-5.6c-1.1-5.4-5.8-0.6-7.6,1.4C209,368.6,207.1,371.9,205.9,375.5z"/>
<path class="st12" d="M231.5,332.2c-1.6,0.8-3.4,1.1-5.2,1c-2,0.1-3.9,0-5.9-0.4c-0.7-0.1-1.3-0.4-1.8-0.8c-0.4-0.4-0.8-0.9-1-1.4
	c-1.6-3.6-3.5-11.1-0.9-14.1c2.9-3.5,14.4-4.1,18-0.4C238.3,319.5,235.8,329.8,231.5,332.2z"/>
<linearGradient id="SVGID_10_" gradientUnits="userSpaceOnUse" x1="307.6525" y1="74.7032" x2="310.7325" y2="101.1032" gradientTransform="matrix(1 0 0 -1 -82.88 406.25)">
	<stop  offset="0" style="stop-color:#010101;stop-opacity:0"/>
	<stop  offset="0.95" style="stop-color:#010101"/>
</linearGradient>
<path class="st15" d="M231.5,332.2c-1.6,0.8-3.4,1.1-5.2,1c-2,0.1-3.9,0-5.9-0.4c-0.7-0.1-1.3-0.4-1.8-0.8c-0.4-0.4-0.8-0.9-1-1.4
	c-1.6-3.6-3.5-11.1-0.9-14.1c2.9-3.5,14.4-4.1,18-0.4C238.3,319.5,235.8,329.8,231.5,332.2z"/>
<rect x="223.6" y="332.4" class="st10" width="5.2" height="33.7"/>
<path class="st10" d="M246.8,368.9c1.2,1,2.3,2.1,3.8,2.3c1.1,0.1,2.2-0.3,3.3-0.3c1.4,0.1,2.8,0.7,3.9,1.7c1,0.8,1.7,1.8,2.1,3
	c0.8,2.8-1.6,5.8-4.5,6.1s-5.6-1.7-6.9-4.3c-0.3-0.7-0.6-1.4-1.1-2c-0.4-0.4-0.9-0.8-1.4-1.1c-4.2-2.6-8.9-4.5-13.8-5.5
	c-0.9-0.2-1.9-0.2-2.4,0.4c-0.3,0.4-0.4,0.8-0.4,1.3c-0.2,2-0.3,4-0.3,6c0,0.4,0,0.8,0.2,1.1c0.3,0.4,0.6,0.7,0.9,0.9
	c1.2,1.3,1.4,3.2,0.5,4.6c-0.9,1.4-2.3,2.5-3.9,3c-1.9,0.7-4.3,0.8-5.8-0.6c-1-1.2-1.3-2.8-0.8-4.2c0.6-1.4,1.6-2.6,3-3.3
	c0.5-0.2,0.9-0.5,1.2-0.9c0.2-0.4,0.2-0.8,0.2-1.2l-0.1-4.5c0.1-0.7-0.2-1.4-0.7-1.9c-0.4-0.2-0.9-0.3-1.3-0.2
	c-7.3,0.6-14.4,3.2-20.3,7.6c1.1,0.8,0.9,2.7-0.1,3.6c-1.1,0.9-2.4,1.3-3.8,1.2c-1.5,0-3-0.4-4.3-1.2c-1.3-0.8-2-2.3-2-3.8
	c0.2-1.6,1.2-2.9,2.7-3.5c1.4-0.6,3-0.8,4.5-0.5c0.8,0.2,1.6,0.2,2.4,0.2c0.9-0.2,1.8-0.5,2.5-1c6.9-3.9,14.6-6.3,22.5-7
	C233.3,364.3,241.5,364.5,246.8,368.9z"/>
<path class="st12" d="M253.3,319.9H195c-6.9,0-12.5-5.6-12.5-12.5v-0.8c0-6.9,5.6-12.5,12.5-12.5h58.4c6.9,0,12.5,5.6,12.5,12.5v0.8
	C265.9,314.3,260.3,319.9,253.3,319.9z"/>
<linearGradient id="SVGID_11_" gradientUnits="userSpaceOnUse" x1="306.6113" y1="116.8698" x2="307.4913" y2="81.2298" gradientTransform="matrix(1 0 0 -1 -82.88 406.26)">
	<stop  offset="0" style="stop-color:#010101;stop-opacity:0"/>
	<stop  offset="0.95" style="stop-color:#010101"/>
</linearGradient>
<path class="st16" d="M253.3,319.9H195c-6.9,0-12.5-5.6-12.5-12.5v-0.8c0-6.9,5.6-12.5,12.5-12.5h58.4c6.9,0,12.5,5.6,12.5,12.5v0.8
	C265.9,314.3,260.3,319.9,253.3,319.9z"/>
<path class="st12" d="M112.4,327.1c-3.3-6.5-7.4-13.3-6.6-20.6c0.5-4.4,2.7-8.4,4.9-12.3l9.8-17.4c3,3.9,7.9,6.3,9.9,10.8
	c3.2,7.2-3,15.2-2.7,23.1c0.2,6.1,4.2,11.6,4,17.7c-0.2,4.4-7.1,18.9-12.8,18.3C116,346.4,114.3,330.8,112.4,327.1z"/>
<linearGradient id="SVGID_12_" gradientUnits="userSpaceOnUse" x1="201.6605" y1="85.96" x2="201.9505" y2="12.3299" gradientTransform="matrix(1 0 0 -1 -82.88 406.25)">
	<stop  offset="0" style="stop-color:#010101;stop-opacity:0"/>
	<stop  offset="0.95" style="stop-color:#010101"/>
</linearGradient>
<path class="st17" d="M112.4,327.1c-3.3-6.5-7.4-13.3-6.6-20.6c0.5-4.4,2.7-8.4,4.9-12.3l9.8-17.4c3,3.9,7.9,6.3,9.9,10.8
	c3.2,7.2-3,15.2-2.7,23.1c0.2,6.1,4.2,11.6,4,17.7c-0.2,4.4-7.1,18.9-12.8,18.3C116,346.4,114.3,330.8,112.4,327.1z"/>
<path class="st12" d="M146.2,324.3c2.2,0,5,0.5,5.6,2.6c0.5,1.9-1.1,3.6-2.7,4.8c-5.5,4-12.3,7.1-15,13.3
	c-4.5,10.3-17.1,3.7-10.5-5.2c2.7-3.7,5-8.7,8.4-11.8C135.9,324.4,141.3,324.2,146.2,324.3z"/>
<linearGradient id="SVGID_13_" gradientUnits="userSpaceOnUse" x1="218.4156" y1="75.0889" x2="227.7956" y2="38.9989" gradientTransform="matrix(1 0 0 -1 -82.88 406.25)">
	<stop  offset="0" style="stop-color:#010101;stop-opacity:0"/>
	<stop  offset="0.95" style="stop-color:#010101"/>
</linearGradient>
<path class="st18" d="M146.2,324.3c2.2,0,5,0.5,5.6,2.6c0.5,1.9-1.1,3.6-2.7,4.8c-5.5,4-12.3,7.1-15,13.3
	c-4.5,10.3-17.1,3.7-10.5-5.2c2.7-3.7,5-8.7,8.4-11.8C135.9,324.4,141.3,324.2,146.2,324.3z"/>
<path class="st12" d="M113.6,329.1c-2.5-2.9-6.2-4.3-9.8-5.6c-1.7-0.6-3.9-1.1-5,0.2c-0.8,1.1-0.8,2.5,0,3.6c0.8,1,1.7,1.9,2.8,2.6
	c2.2,1.6,4,3.7,5.2,6.1c1.3,2.6,1.6,5.5,2.7,8.2s3.5,5.2,6.4,5c2.3-0.2,4.2-1.8,4.9-4c1.1-3.5-0.4-5-2.2-7.4
	C116.6,335.1,115.8,331.7,113.6,329.1z"/>
<linearGradient id="SVGID_14_" gradientUnits="userSpaceOnUse" x1="194.8596" y1="77.0537" x2="179.0196" y2="38.6337" gradientTransform="matrix(1 0 0 -1 -82.88 406.25)">
	<stop  offset="0" style="stop-color:#010101;stop-opacity:0"/>
	<stop  offset="0.95" style="stop-color:#010101"/>
</linearGradient>
<path class="st19" d="M113.6,329.1c-2.5-2.9-6.2-4.3-9.8-5.6c-1.7-0.6-3.9-1.1-5,0.2c-0.8,1.1-0.8,2.5,0,3.6c0.8,1,1.7,1.9,2.8,2.6
	c2.2,1.6,4,3.7,5.2,6.1c1.3,2.6,1.6,5.5,2.7,8.2s3.5,5.2,6.4,5c2.3-0.2,4.2-1.8,4.9-4c1.1-3.5-0.4-5-2.2-7.4
	C116.6,335.1,115.8,331.7,113.6,329.1z"/>
<path class="st12" d="M135.3,345.1l-3.4,31.5h-3.6c-2.7-1.6-5.5-3.1-8.3-4.6l-8.1-4.5l-2.9-22.3H135.3z"/>
<linearGradient id="SVGID_15_" gradientUnits="userSpaceOnUse" x1="207.7351" y1="58.1382" x2="189.2551" y2="4.4582" gradientTransform="matrix(1 0 0 -1 -82.88 406.25)">
	<stop  offset="0" style="stop-color:#010101;stop-opacity:0"/>
	<stop  offset="0.95" style="stop-color:#010101"/>
</linearGradient>
<path class="st20" d="M135.3,345.1l-3.4,31.5h-3.6c-2.7-1.6-5.5-3.1-8.3-4.6l-8.1-4.5l-2.9-22.3H135.3z"/>
</svg>
