<svg xmlns="http://www.w3.org/2000/svg" width="459.017" height="325.388" viewBox="0 0 459.017 325.388">
  <g id="Mail_sent-amico" data-name="Mail sent-amico" transform="translate(-27.881 -92.305)">
    <g id="freepik--Floor--inject-50" transform="translate(27.881 186.071)">
      <path id="Path_445" data-name="Path 445" d="M92.81,380.755c86.577,45.226,226.936,45.226,313.5,0s86.577-118.557,0-163.783-226.936-45.226-313.5,0S6.233,335.529,92.81,380.755Z" transform="translate(-27.881 -183.053)" fill="#fafafa"/>
    </g>
    <g id="freepik--Shadow--inject-50" transform="translate(285.336 313.727)">
      <path id="Path_446" data-name="Path 446" d="M292.322,315.414c-20.366,11.748-20.366,30.812,0,42.571s53.368,11.759,73.734,0,20.355-30.822,0-42.571S312.677,303.655,292.322,315.414Z" transform="translate(-277.047 -306.599)" fill="#ebebeb"/>
    </g>
    <g id="freepik--paper-planes--inject-50" transform="translate(44.381 102.458)">
      <path id="Path_447" data-name="Path 447" d="M84.31,152.576l54.556-16.966L96.9,164.686Z" transform="translate(-42.504 -101.018)" fill="#35a7ff"/>
      <path id="Path_448" data-name="Path 448" d="M139.407,135.688,80.645,145.38,68.06,133.26Z" transform="translate(-43.044 -101.096)" fill="#35a7ff"/>
      <path id="Path_449" data-name="Path 449" d="M80.24,145.3V159.84l4.205-7.264L139,135.61Z" transform="translate(-42.639 -101.018)" fill="#455a64"/>
      <path id="Path_450" data-name="Path 450" d="M80.24,159.294l8.4-3.224-4.2-4.04Z" transform="translate(-42.639 -100.471)" fill="#35a7ff"/>
      <path id="Path_451" data-name="Path 451" d="M84.31,152.03l4.2,4.04-1.343.506Z" transform="translate(-42.504 -100.471)" fill="#455a64"/>
      <path id="Path_452" data-name="Path 452" d="M71.515,157.036a.775.775,0,0,1-.382-1.457c.93-.517,1.87-1.033,2.8-1.436a.775.775,0,1,1,.672,1.395c-.9.434-1.819.9-2.717,1.405A.827.827,0,0,1,71.515,157.036Z" transform="translate(-42.956 -100.404)" fill="#e0e0e0"/>
      <path id="Path_453" data-name="Path 453" d="M62.872,240.351a.775.775,0,0,1-.444-.134,42.366,42.366,0,0,1-4.763-3.906.775.775,0,1,1,1.033-1.126,40.3,40.3,0,0,0,4.6,3.761.775.775,0,0,1-.455,1.405Zm-8.1-7.522a.765.765,0,0,1-.6-.279,42.3,42.3,0,0,1-3.544-5.032.779.779,0,0,1,1.333-.806,41.331,41.331,0,0,0,3.41,4.856.775.775,0,0,1-.1,1.085.744.744,0,0,1-.5.176Zm-5.817-9.4a.775.775,0,0,1-.713-.455,48.492,48.492,0,0,1-2.17-5.755.775.775,0,0,1,1.478-.455,47.192,47.192,0,0,0,2.067,5.569.775.775,0,0,1-.382,1.033.723.723,0,0,1-.279.062ZM45.6,212.877a.775.775,0,0,1-.754-.63,53.728,53.728,0,0,1-.837-6.076.777.777,0,1,1,1.55-.124,50.341,50.341,0,0,0,.806,5.9.765.765,0,0,1-.61.909Zm-.982-11.035h0a.765.765,0,0,1-.765-.785,55.112,55.112,0,0,1,.413-6.117.775.775,0,1,1,1.529.186,54.762,54.762,0,0,0-.393,5.952.775.775,0,0,1-.785.765Zm1.261-11a.517.517,0,0,1-.176,0,.775.775,0,0,1-.589-.92,48.315,48.315,0,0,1,1.736-5.9.775.775,0,0,1,1.033-.465.785.785,0,0,1,.465,1.033,46.912,46.912,0,0,0-1.674,5.7.775.775,0,0,1-.8.548ZM49.554,180.4a.641.641,0,0,1-.341-.083.765.765,0,0,1-.362-1.033,49.886,49.886,0,0,1,3.038-5.342.775.775,0,0,1,1.033-.217.765.765,0,0,1,.227,1.033,46.861,46.861,0,0,0-2.945,5.166.765.765,0,0,1-.651.475Zm5.941-9.3a.744.744,0,0,1-.475-.165.775.775,0,0,1-.124-1.1,54.764,54.764,0,0,1,4.133-4.557.774.774,0,0,1,1.1,1.1,55.356,55.356,0,0,0-3.988,4.433.765.765,0,0,1-.641.248Zm7.77-7.935a.765.765,0,0,1-.589-.279.785.785,0,0,1,.093-1.1,60.717,60.717,0,0,1,4.908-3.678.775.775,0,0,1,1.033.207.785.785,0,0,1-.207,1.085,57.687,57.687,0,0,0-4.784,3.585.806.806,0,0,1-.455.176Z" transform="translate(-43.85 -100.273)" fill="#e0e0e0"/>
      <path id="Path_454" data-name="Path 454" d="M69.254,241.7a.723.723,0,0,1-.32-.072c-.961-.434-1.912-.9-2.821-1.395a.765.765,0,0,1-.32-1.033.775.775,0,0,1,1.033-.32c.889.475,1.808.93,2.738,1.354a.775.775,0,0,1-.32,1.478Z" transform="translate(-43.123 -97.585)" fill="#e0e0e0"/>
      <path id="Path_455" data-name="Path 455" d="M411.19,206.221,454.9,178.24l19.25,6.179Z" transform="translate(-31.63 -99.599)" fill="#35a7ff"/>
      <path id="Path_456" data-name="Path 456" d="M411.19,206.646l37.776-31.494-8.4-9.692Z" transform="translate(-31.63 -100.024)" fill="#35a7ff"/>
      <path id="Path_457" data-name="Path 457" d="M448.966,174.84v7.305L411.19,206.334Z" transform="translate(-31.63 -99.712)" fill="#455a64"/>
      <path id="Path_458" data-name="Path 458" d="M459.475,174.211a.744.744,0,0,1-.506-.2.785.785,0,0,1-.072-1.1,30.617,30.617,0,0,0,3.565-4.867.778.778,0,1,1,1.343.785,33.446,33.446,0,0,1-3.74,5.115A.775.775,0,0,1,459.475,174.211Zm5.91-9.63a.887.887,0,0,1-.279,0,.775.775,0,0,1-.434-1.033,31.372,31.372,0,0,0,1.633-5.817.777.777,0,0,1,1.529.279,33.4,33.4,0,0,1-1.726,6.1.765.765,0,0,1-.723.475Zm2.211-11.087h0a.765.765,0,0,1-.754-.785V151.9a34.525,34.525,0,0,0-.413-5.239.785.785,0,0,1,.651-.889.8.8,0,0,1,.889.651,36.316,36.316,0,0,1,.424,5.476v.837a.785.785,0,0,1-.8.754Zm-1.56-11.2a.765.765,0,0,1-.734-.558,39.1,39.1,0,0,0-2.222-5.652.765.765,0,0,1,.362-1.033.775.775,0,0,1,1.033.362,39.39,39.39,0,0,1,2.3,5.879.765.765,0,0,1-.517.961A.589.589,0,0,1,466.036,142.293Zm-4.794-10.26a.754.754,0,0,1-.651-.362,46.292,46.292,0,0,0-3.647-4.867.775.775,0,0,1,.083-1.1.765.765,0,0,1,1.085.083,47.161,47.161,0,0,1,3.782,5.042.8.8,0,0,1-.227,1.033.806.806,0,0,1-.424.155Zm-7.233-8.69a.754.754,0,0,1-.527-.217A56.3,56.3,0,0,0,448.8,119.2a.775.775,0,1,1,.93-1.24,55.9,55.9,0,0,1,4.815,4.04.775.775,0,0,1-.537,1.343Zm-9.062-6.882a.775.775,0,0,1-.413-.124c-.7-.434-1.436-.868-2.18-1.292-1.033-.579-2.067-1.157-3.162-1.7a.775.775,0,1,1,.7-1.374c1.085.558,2.17,1.137,3.224,1.736.765.424,1.509.868,2.232,1.323a.775.775,0,0,1,.258,1.033A.8.8,0,0,1,444.947,116.461Zm-92.632-.527a.785.785,0,0,1-.672-.393.765.765,0,0,1,.279-1.033c1.8-1.033,3.647-2.067,5.518-2.934a.775.775,0,0,1,1.033.351.785.785,0,0,1-.362,1.033c-1.839.9-3.658,1.86-5.425,2.883a.734.734,0,0,1-.372.072Zm82.558-4.722a.682.682,0,0,1-.31-.072c-1.86-.816-3.782-1.581-5.7-2.263a.78.78,0,1,1,.527-1.467c1.953.7,3.906,1.478,5.807,2.315a.775.775,0,0,1-.32,1.488Zm-72.38-.32a.765.765,0,0,1-.713-.475.775.775,0,0,1,.413-1.033c1.912-.806,3.875-1.55,5.838-2.222a.775.775,0,0,1,1.033.475.8.8,0,0,1-.486,1.033c-1.932.661-3.875,1.395-5.745,2.18a.816.816,0,0,1-.341.021Zm61.717-3.575a.786.786,0,0,1-.217,0c-1.953-.568-3.957-1.033-5.952-1.519a.777.777,0,0,1,.331-1.519c2.067.444,4.071.971,6.055,1.55a.775.775,0,0,1-.217,1.519Zm-50.992-.155a.775.775,0,0,1-.744-.568.765.765,0,0,1,.527-.951c1.994-.558,4.04-1.033,6.076-1.488a.775.775,0,1,1,.32,1.509c-2,.424-4.009.92-5.972,1.467Zm39.915-2.335h-.155c-2.015-.32-4.071-.579-6.1-.765a.775.775,0,1,1,.134-1.54q3.1.279,6.2.775a.785.785,0,0,1,.641.889.775.775,0,0,1-.723.61Zm-28.818-.072a.775.775,0,0,1-.765-.651.785.785,0,0,1,.651-.889c2.066-.31,4.133-.568,6.2-.744a.778.778,0,1,1,.134,1.55c-2.067.176-4.081.413-6.1.734Zm17.514-1.033h0c-2.067-.072-4.133-.083-6.148,0a.754.754,0,0,1-.8-.744.765.765,0,0,1,.754-.8c2.066-.072,4.133-.062,6.2,0a.775.775,0,0,1,.754.8.785.785,0,0,1-.765.723Z" transform="translate(-33.614 -102.131)" fill="#e0e0e0"/>
    </g>
    <g id="freepik--Mailbox--inject-50" transform="translate(362.752 133.18)">
      <path id="Path_459" data-name="Path 459" d="M397.118,220.135v-1.653h-.4a6.469,6.469,0,0,0-2.676-2.624,16.46,16.46,0,0,0-14.9,0,6.468,6.468,0,0,0-2.676,2.625h-.4v1.6c0,1.581,1.033,3.172,3.1,4.381a16.532,16.532,0,0,0,14.9,0C396.105,223.3,397.128,221.706,397.118,220.135Z" transform="translate(-351.17 -129.129)" fill="#37474f"/>
      <ellipse id="Ellipse_22" data-name="Ellipse 22" cx="10.529" cy="6.086" rx="10.529" ry="6.086" transform="translate(24.89 83.267)" fill="#455a64"/>
      <path id="Path_460" data-name="Path 460" d="M383.63,169.3v49.958a1.354,1.354,0,0,0,.785,1.106,4.247,4.247,0,0,0,3.833,0,1.343,1.343,0,0,0,.8-1.106V169.3Z" transform="translate(-350.918 -130.618)" fill="#37474f"/>
      <path id="Path_461" data-name="Path 461" d="M399.3,133.151c-2.635-1.519-5.032-1.643-6.83-.641h0L359,151.854l16.791,33.674L409.372,166.1V151.368C409.372,144.517,404.856,136.365,399.3,133.151Z" transform="translate(-351.737 -131.864)" fill="#455a64"/>
      <path id="Path_462" data-name="Path 462" d="M375.9,170.158V184.9L355.76,173.268V158.534c0-6.851,4.505-9.8,10.064-6.582,3.565,2.067,6.7,6.138,8.483,10.6a20.945,20.945,0,0,1,1.591,7.6Z" transform="translate(-351.845 -131.239)" fill="#37474f"/>
      <path id="Path_463" data-name="Path 463" d="M375.9,169.775V184.52L355.76,172.885l18.547-10.715A20.945,20.945,0,0,1,375.9,169.775Z" transform="translate(-351.845 -130.856)" fill="#263238"/>
      <path id="Path_464" data-name="Path 464" d="M372.666,174.971c-1.85-5.352-7.863-12.3-13.432-15.5s-8.566-1.478-6.716,3.875l3.358,9.692,20.149,11.635S374.526,180.323,372.666,174.971Z" transform="translate(-351.971 -130.999)" fill="#455a64"/>
      <path id="Path_465" data-name="Path 465" d="M385.564,170.1l-1.126-.651h0a1.508,1.508,0,0,0-1.509.145,4.743,4.743,0,0,0-2.139,3.709,1.5,1.5,0,0,0,.63,1.385h0l1.033.6.2-.32a2.067,2.067,0,0,0,.61-.238,4.722,4.722,0,0,0,2.139-3.7,2.2,2.2,0,0,0-.072-.548Z" transform="translate(-351.013 -130.618)" fill="#263238"/>
      <path id="Path_466" data-name="Path 466" d="M383.969,170.2a4.722,4.722,0,0,0-2.139,3.7c0,1.364.961,1.912,2.139,1.23a4.712,4.712,0,0,0,2.139-3.7C386.139,170.065,385.105,169.517,383.969,170.2Z" transform="translate(-350.978 -130.598)" fill="#37474f"/>
      <path id="Path_467" data-name="Path 467" d="M383.92,173.866a.62.62,0,0,1-.62-.62V151.93a.62.62,0,1,1,1.24,0v21.316A.62.62,0,0,1,383.92,173.866Z" transform="translate(-350.929 -131.217)" fill="#263238"/>
      <path id="Path_468" data-name="Path 468" d="M384.44,152.468v5.559l5.962-6.117Z" transform="translate(-350.891 -131.197)" fill="#37474f"/>
    </g>
    <g id="freepik--Plants--inject-50" transform="translate(45.694 197.692)">
      <path id="Path_469" data-name="Path 469" d="M82.276,332.476c-.517.279-10,2.965-13.515-1.674s2.325-11.872-.971-14.538-12.534,0-14.755-5.6,4.36-8.018.661-13.67c-2.335-3.565-8.865-5.528-8.566-8.845.434-4.846,9.361-6.2,17.152-.961s11.428.94,13.9.589,7.8.424,7.636,9.1S82.276,332.476,82.276,332.476Z" transform="translate(-45.12 -191.32)" fill="#35a7ff"/>
      <path id="Path_470" data-name="Path 470" d="M82.743,320.1a.527.527,0,0,1-.517-.434C79.509,303.135,60.363,289.775,50.4,286.9a.506.506,0,0,1-.351-.641.517.517,0,0,1,.641-.351C60.869,288.855,80.46,302.588,83.25,319.5a.517.517,0,0,1-.424.589Z" transform="translate(-44.957 -191.252)" fill="#fff"/>
      <path id="Path_471" data-name="Path 471" d="M59.847,305.738a.517.517,0,0,1-.269-.961c.31-.186,7.687-4.495,14.941-2.48a.534.534,0,0,1-.269,1.033c-6.84-1.9-14.073,2.325-14.145,2.366A.465.465,0,0,1,59.847,305.738Z" transform="translate(-44.648 -190.724)" fill="#fff"/>
      <path id="Path_472" data-name="Path 472" d="M342.662,248.154c4.071.558,11-1.8,11.5-8.576s3.3-8.617,8.431-9.723,6.644-2.893,7.233-6.117-3.317-7.078-2.221-11.934,4.753-4.846,8.349-10.333c2.3-3.534-2.418-8.927-10.281-6.613s-7.233,7.388-15.1,8.039-12.792,5.425-12.947,11.366S342.662,248.154,342.662,248.154Z" transform="translate(-35.39 -194.299)" fill="#35a7ff"/>
      <path id="Path_473" data-name="Path 473" d="M342.662,248.154c4.071.558,11-1.8,11.5-8.576s3.3-8.617,8.431-9.723,6.644-2.893,7.233-6.117-3.317-7.078-2.221-11.934,4.753-4.846,8.349-10.333c2.3-3.534-2.418-8.927-10.281-6.613s-7.233,7.388-15.1,8.039-12.792,5.425-12.947,11.366S342.662,248.154,342.662,248.154Z" transform="translate(-35.39 -194.299)" opacity="0.2"/>
      <path id="Path_474" data-name="Path 474" d="M341.075,235.076h-.062a.517.517,0,0,1-.4-.61c3.8-18.8,24.54-36,29.593-37.756a.544.544,0,1,1,.341,1.033c-4.939,1.715-25.2,18.6-28.931,36.981a.527.527,0,0,1-.537.351Z" transform="translate(-35.291 -194.219)" fill="#fff"/>
    </g>
    <g id="freepik--Envelopes--inject-50" transform="translate(78.51 92.305)">
      <path id="Path_475" data-name="Path 475" d="M76.88,230.113a5.931,5.931,0,0,1,2.686-4.65L216.9,146.17a5.972,5.972,0,0,1,5.363,0l3.027,1.757a5.9,5.9,0,0,1,2.686,4.65V257.846a5.962,5.962,0,0,1-2.686,4.65L87.957,341.778a5.931,5.931,0,0,1-5.373,0l-3.017-1.746a5.952,5.952,0,0,1-2.686-4.65Z" transform="translate(-76.88 -90.534)" fill="#35a7ff"/>
      <path id="Path_476" data-name="Path 476" d="M76.88,230.113a5.931,5.931,0,0,1,2.686-4.65L216.9,146.17a5.972,5.972,0,0,1,5.363,0l3.027,1.757a5.9,5.9,0,0,1,2.686,4.65V257.846a5.962,5.962,0,0,1-2.686,4.65L87.957,341.778a5.931,5.931,0,0,1-5.373,0l-3.017-1.746a5.952,5.952,0,0,1-2.686-4.65Z" transform="translate(-76.88 -90.534)" opacity="0.3"/>
      <path id="Path_477" data-name="Path 477" d="M89.465,231.65l-11.8-6.82a5.5,5.5,0,0,0-.785,2.645V332.744a5.952,5.952,0,0,0,2.687,4.65l3.017,1.746a5.931,5.931,0,0,0,5.373,0l1.509-.868Z" transform="translate(-76.88 -87.896)" fill="#35a7ff"/>
      <path id="Path_478" data-name="Path 478" d="M89.465,231.65l-11.8-6.82a5.5,5.5,0,0,0-.785,2.645V332.744a5.952,5.952,0,0,0,2.687,4.65l3.017,1.746a5.931,5.931,0,0,0,5.373,0l1.509-.868Z" transform="translate(-76.88 -87.896)" opacity="0.5"/>
      <path id="Path_479" data-name="Path 479" d="M227.7,152.4V257.667a5.477,5.477,0,0,1-.837,2.717,5.755,5.755,0,0,1-1.571,1.757l-.1.062-.176.114L87.687,341.6h0a1.912,1.912,0,0,1-1.829.207A1.85,1.85,0,0,1,85,340.09V234.78a2.335,2.335,0,0,1,3.017-2.377l57.749,13.732,7.564,1.8a4.98,4.98,0,0,0,4.825-1.808l8.762-12.2L225.9,151.809C226.888,150.424,227.7,150.682,227.7,152.4Z" transform="translate(-76.61 -90.355)" fill="#35a7ff"/>
      <path id="Path_480" data-name="Path 480" d="M227.7,152.4V257.667a5.477,5.477,0,0,1-.837,2.717,5.755,5.755,0,0,1-1.571,1.757l-.1.062-.176.114L87.687,341.6h0a1.912,1.912,0,0,1-1.829.207A1.85,1.85,0,0,1,85,340.09V234.78a2.335,2.335,0,0,1,3.017-2.377l57.749,13.732,7.564,1.8a4.98,4.98,0,0,0,4.825-1.808l8.762-12.2L225.9,151.809C226.888,150.424,227.7,150.682,227.7,152.4Z" transform="translate(-76.61 -90.355)" opacity="0.2"/>
      <path id="Path_481" data-name="Path 481" d="M222.381,259.643l.176-.114.1-.062a5.755,5.755,0,0,0,1.571-1.757,5.446,5.446,0,0,0,.837-2.676L164.28,231.27l40.711,38.438Z" transform="translate(-73.973 -87.682)" fill="#35a7ff"/>
      <path id="Path_482" data-name="Path 482" d="M222.381,259.643l.176-.114.1-.062a5.755,5.755,0,0,0,1.571-1.757,5.446,5.446,0,0,0,.837-2.676L164.28,231.27l40.711,38.438Z" transform="translate(-73.973 -87.682)" opacity="0.6"/>
      <path id="Path_483" data-name="Path 483" d="M85,337.027a1.85,1.85,0,0,0,.837,1.767,1.911,1.911,0,0,0,1.829-.207h0l47.3-27.392,10.8-68.2L85,335.24Z" transform="translate(-76.61 -87.292)" fill="#35a7ff"/>
      <path id="Path_484" data-name="Path 484" d="M85,337.027a1.85,1.85,0,0,0,.837,1.767,1.911,1.911,0,0,0,1.829-.207h0l47.3-27.392,10.8-68.2L85,335.24Z" transform="translate(-76.61 -87.292)" opacity="0.6"/>
      <path id="Path_485" data-name="Path 485" d="M226.84,257.774a5.756,5.756,0,0,1-1.571,1.757l-.1.062-137.507,79.4h0a1.912,1.912,0,0,1-1.829.207L151.6,234.206a10.333,10.333,0,0,1,12.936-3.947Z" transform="translate(-76.582 -87.745)" fill="#35a7ff"/>
      <path id="Path_486" data-name="Path 486" d="M226.84,257.774a5.756,5.756,0,0,1-1.571,1.757l-.1.062-137.507,79.4h0a1.912,1.912,0,0,1-1.829.207L151.6,234.206a10.333,10.333,0,0,1,12.936-3.947Z" transform="translate(-76.582 -87.745)" opacity="0.2"/>
      <path id="Path_487" data-name="Path 487" d="M85,231.727l63.164,27.9a10.333,10.333,0,0,0,12.936-3.978L227.425,149.5Z" transform="translate(-76.61 -90.402)" fill="#35a7ff"/>
      <path id="Path_488" data-name="Path 488" d="M85,231.727l63.164,27.9a10.333,10.333,0,0,0,12.936-3.978L227.425,149.5Z" transform="translate(-76.61 -90.402)" opacity="0.6"/>
      <path id="Path_489" data-name="Path 489" d="M85,231.727l63.608,23.765a10.333,10.333,0,0,0,12.265-4.03L227.425,149.5Z" transform="translate(-76.61 -90.402)" fill="#35a7ff"/>
      <path id="Path_490" data-name="Path 490" d="M85,231.727l63.608,23.765a10.333,10.333,0,0,0,12.265-4.03L227.425,149.5Z" transform="translate(-76.61 -90.402)" opacity="0.2"/>
      <path id="Path_491" data-name="Path 491" d="M99.58,242.663a5.9,5.9,0,0,1,2.687-4.65L239.6,158.721a5.931,5.931,0,0,1,5.373,0L248,160.467a5.931,5.931,0,0,1,2.676,4.65V270.386a5.952,5.952,0,0,1-2.676,4.65L110.657,354.318a5.972,5.972,0,0,1-5.363,0l-3.027-1.746a5.962,5.962,0,0,1-2.686-4.65Z" transform="translate(-76.125 -90.117)" fill="#455a64"/>
      <path id="Path_492" data-name="Path 492" d="M99.58,242.663a5.9,5.9,0,0,1,2.687-4.65L239.6,158.721a5.931,5.931,0,0,1,5.373,0L248,160.467a5.931,5.931,0,0,1,2.676,4.65V270.386a5.952,5.952,0,0,1-2.676,4.65L110.657,354.318a5.972,5.972,0,0,1-5.363,0l-3.027-1.746a5.962,5.962,0,0,1-2.686-4.65Z" transform="translate(-76.125 -90.117)" fill="#455a64"/>
      <path id="Path_493" data-name="Path 493" d="M112.176,244.219l-11.81-6.809a5.466,5.466,0,0,0-.785,2.645V345.293a5.962,5.962,0,0,0,2.686,4.65l3.027,1.746a5.972,5.972,0,0,0,5.363,0l1.519-.878Z" transform="translate(-76.125 -87.478)" fill="#263238"/>
      <path id="Path_494" data-name="Path 494" d="M250.414,164.937V270.206a5.476,5.476,0,0,1-.837,2.718,5.756,5.756,0,0,1-1.571,1.757l-.1.062-.176.114L110.4,354.139h0a1.912,1.912,0,0,1-1.829.207,1.85,1.85,0,0,1-.837-1.767V247.32a2.335,2.335,0,0,1,3.017-2.377L168.5,258.675l7.564,1.8a4.981,4.981,0,0,0,4.825-1.808l8.752-12.2,58.979-82.114C249.567,162.984,250.414,163.222,250.414,164.937Z" transform="translate(-75.854 -89.938)" fill="#37474f"/>
      <path id="Path_495" data-name="Path 495" d="M245.091,272.183l.176-.114.1-.062a5.756,5.756,0,0,0,1.571-1.757,5.466,5.466,0,0,0,.827-2.666L186.99,243.82l40.7,38.417Z" transform="translate(-73.217 -87.265)" fill="#263238"/>
      <path id="Path_496" data-name="Path 496" d="M107.711,349.524a1.85,1.85,0,0,0,.837,1.767,1.912,1.912,0,0,0,1.829-.207h0l47.282-27.3,10.8-68.2L107.69,347.757Z" transform="translate(-75.855 -86.873)" fill="#263238"/>
      <path id="Path_497" data-name="Path 497" d="M249.539,270.315a5.755,5.755,0,0,1-1.571,1.757l-.1.062-137.5,79.4h0a1.912,1.912,0,0,1-1.829.207L174.3,246.756a10.333,10.333,0,0,1,12.936-3.968Z" transform="translate(-75.827 -87.328)" fill="#37474f"/>
      <path id="Path_498" data-name="Path 498" d="M107.71,244.279l63.164,27.9A10.333,10.333,0,0,0,183.8,268.2L250.125,162Z" transform="translate(-75.854 -89.987)" fill="#263238"/>
      <path id="Path_499" data-name="Path 499" d="M107.71,244.279l63.6,23.765a10.333,10.333,0,0,0,12.275-4.03L250.125,162Z" transform="translate(-75.854 -89.987)" fill="#37474f"/>
      <path id="Path_500" data-name="Path 500" d="M197.07,327.455V222.186a11.3,11.3,0,0,1,1.808-5.611l65.5-91.206a10.333,10.333,0,0,1,10.787-4.03l61.593,14.641a25.831,25.831,0,0,1,5.7,2.273L345.488,140a5.962,5.962,0,0,1,2.676,4.65V249.919a5.983,5.983,0,0,1-2.676,4.65L208.147,333.851a5.941,5.941,0,0,1-5.363,0l-3.027-1.746a5.952,5.952,0,0,1-2.686-4.65Z" transform="translate(-72.882 -91.348)" fill="#35a7ff"/>
      <path id="Path_501" data-name="Path 501" d="M197.07,327.455V222.186a11.3,11.3,0,0,1,1.808-5.611l65.5-91.206a10.333,10.333,0,0,1,10.787-4.03l61.593,14.641a25.831,25.831,0,0,1,5.7,2.273L345.488,140a5.962,5.962,0,0,1,2.676,4.65V249.919a5.983,5.983,0,0,1-2.676,4.65L208.147,333.851a5.941,5.941,0,0,1-5.363,0l-3.027-1.746a5.952,5.952,0,0,1-2.686-4.65Z" transform="translate(-72.882 -91.348)" fill="#fff" opacity="0.3"/>
      <path id="Path_502" data-name="Path 502" d="M209.25,172.247V306.571c0,1.7,1.209,2.407,2.687,1.55l128.941-74.4a5.921,5.921,0,0,0,2.686-4.65V94.752c0-1.715-1.2-2.408-2.686-1.55L211.937,167.6A5.931,5.931,0,0,0,209.25,172.247Z" transform="translate(-72.477 -92.287)" fill="#fafafa"/>
      <path id="Path_503" data-name="Path 503" d="M210.754,309.038a1.891,1.891,0,0,1-.951-.248,2.345,2.345,0,0,1-1.033-2.18V172.285a6.437,6.437,0,0,1,2.945-5.1l128.941-74.4a2.139,2.139,0,0,1,3.461,2V229.115a6.406,6.406,0,0,1-2.945,5.094L212.232,308.6a2.945,2.945,0,0,1-1.478.434ZM342.093,93.312a1.984,1.984,0,0,0-.94.3L212.211,168.059a5.456,5.456,0,0,0-2.428,4.205V306.589a1.147,1.147,0,0,0,1.912,1.106l128.941-74.4a5.445,5.445,0,0,0,2.428-4.205V94.769a1.436,1.436,0,0,0-.527-1.292A.888.888,0,0,0,342.093,93.312Z" transform="translate(-72.493 -92.305)" fill="#e0e0e0"/>
      <path id="Path_504" data-name="Path 504" d="M206.875,221.583l-9.3-5.373a9.837,9.837,0,0,0-.5,2.81V324.29a5.952,5.952,0,0,0,2.687,4.65l3.017,1.746a5.911,5.911,0,0,0,5.363,0l1.292-.734Z" transform="translate(-72.881 -88.183)" fill="#35a7ff"/>
      <g id="Group_20" data-name="Group 20" transform="translate(124.199 128.027)" opacity="0.1">
        <path id="Path_505" data-name="Path 505" d="M206.875,221.583l-9.3-5.373a9.837,9.837,0,0,0-.5,2.81V324.29a5.952,5.952,0,0,0,2.687,4.65l3.017,1.746a5.911,5.911,0,0,0,5.363,0l1.292-.734Z" transform="translate(-197.08 -216.21)"/>
      </g>
      <path id="Path_506" data-name="Path 506" d="M347.9,143.937V249.206a5.476,5.476,0,0,1-.837,2.717,5.755,5.755,0,0,1-1.571,1.757l-.1.062-.176.114L207.886,333.139h0a1.912,1.912,0,0,1-1.829.207,1.85,1.85,0,0,1-.837-1.767V226.32a2.335,2.335,0,0,1,3.017-2.377l57.718,13.732,7.564,1.8a4.98,4.98,0,0,0,4.836-1.808l8.762-12.2L346.1,143.348C347.088,141.984,347.9,142.222,347.9,143.937Z" transform="translate(-72.611 -90.636)" fill="#35a7ff"/>
      <path id="Path_507" data-name="Path 507" d="M347.9,143.937V249.206a5.476,5.476,0,0,1-.837,2.717,5.755,5.755,0,0,1-1.571,1.757l-.1.062-.176.114L207.886,333.139h0a1.912,1.912,0,0,1-1.829.207,1.85,1.85,0,0,1-.837-1.767V226.32a2.335,2.335,0,0,1,3.017-2.377l57.718,13.732,7.564,1.8a4.98,4.98,0,0,0,4.836-1.808l8.762-12.2L346.1,143.348C347.088,141.984,347.9,142.222,347.9,143.937Z" transform="translate(-72.611 -90.636)" fill="#fff" opacity="0.3"/>
      <path id="Path_508" data-name="Path 508" d="M342.581,251.183l.176-.114.1-.062a5.755,5.755,0,0,0,1.571-1.757,5.5,5.5,0,0,0,.827-2.676L284.48,222.81l40.7,38.427Z" transform="translate(-69.974 -87.964)" fill="#35a7ff"/>
      <path id="Path_509" data-name="Path 509" d="M205.2,328.524a1.85,1.85,0,0,0,.837,1.767,1.912,1.912,0,0,0,1.829-.207h0l47.282-27.3,10.8-68.2L205.18,326.757Z" transform="translate(-72.612 -87.572)" fill="#35a7ff"/>
      <path id="Path_510" data-name="Path 510" d="M347.04,249.315a5.755,5.755,0,0,1-1.571,1.757l-.1.062-137.507,79.4h0a1.912,1.912,0,0,1-1.829.207l65.757-104.98a10.333,10.333,0,0,1,12.926-3.968Z" transform="translate(-72.584 -88.027)" fill="#35a7ff"/>
      <path id="Path_511" data-name="Path 511" d="M347.04,249.315a5.755,5.755,0,0,1-1.571,1.757l-.1.062-137.507,79.4h0a1.912,1.912,0,0,1-1.829.207l65.757-104.98a10.333,10.333,0,0,1,12.926-3.968Z" transform="translate(-72.584 -88.027)" fill="#fff" opacity="0.3"/>
      <path id="Path_512" data-name="Path 512" d="M264.489,201.069a7.522,7.522,0,0,1-6.623-2.273c-1.571-1.746-2.356-4.443-2.356-8.07a28.715,28.715,0,0,1,2.573-11.862,35.854,35.854,0,0,1,7.088-10.333,49.092,49.092,0,0,1,10.746-8.411q5.817-3.348,9.93-3.709c2.759-.248,4.836.465,6.262,2.118s2.129,4.185,2.129,7.574a19.808,19.808,0,0,1-2.314,9.651,16.1,16.1,0,0,1-6.117,6.468,4.5,4.5,0,0,1-3.1.806,2.067,2.067,0,0,1-1.612-1.56,18.938,18.938,0,0,1-3.244,4.433,20.106,20.106,0,0,1-4.422,3.441c-2.81,1.591-5.053,2.067-6.706,1.519s-2.439-2.221-2.439-5.011a17.431,17.431,0,0,1,3.1-9.806,24.9,24.9,0,0,1,8.431-7.729,15.736,15.736,0,0,1,4.536-1.819,6.933,6.933,0,0,1,3.627,0v10.88c0,.878.155,1.416.455,1.622s.8.1,1.5-.3a6.675,6.675,0,0,0,2.738-3.627,17.887,17.887,0,0,0,.982-6.272q0-4.071-1.777-5.921a5.538,5.538,0,0,0-4.867-1.488,18.6,18.6,0,0,0-7.1,2.645,34.738,34.738,0,0,0-11.521,10.333,23.651,23.651,0,0,0-4.236,13.649q0,4.453,1.829,6.5a5.642,5.642,0,0,0,5.042,1.736,18.382,18.382,0,0,0,7.233-2.656,29.57,29.57,0,0,0,4.288-3.017,22.867,22.867,0,0,0,3.379-3.451,1.817,1.817,0,0,1,.362-.351c.093-.052.186,0,.269.124l1.137,2.067a1.117,1.117,0,0,1,.093.258,1.033,1.033,0,0,1-.32.6,31.957,31.957,0,0,1-4.133,4.133,36.386,36.386,0,0,1-5.053,3.554A24.416,24.416,0,0,1,264.489,201.069Zm13.432-19.425a6.923,6.923,0,0,0,1.633-4.133v-6.3a8.907,8.907,0,0,0-4.133,1.426,14.249,14.249,0,0,0-4.9,4.557,10.53,10.53,0,0,0-1.808,5.859c0,1.746.434,2.79,1.312,3.1s2.232,0,4.081-1.106a13.04,13.04,0,0,0,3.854-3.4Z" transform="translate(-70.938 -90.174)" fill="#e0e0e0"/>
    </g>
    <g id="freepik--Notifications--inject-50" transform="translate(97.791 206.486)">
      <path id="Path_513" data-name="Path 513" d="M138.214,209.878,128.14,204.04h-.072c-3.441-1.943-8.183-1.653-13.432,1.374-10.55,6.086-19.095,20.893-19.095,33.064,0,6.086,2.129,10.333,5.569,12.4h0l9.372,5.363,1.695-2.821a19.633,19.633,0,0,0,5.476-2.129c10.539-6.1,19.095-20.9,19.095-33.064a20.728,20.728,0,0,0-.6-4.877Z" transform="translate(-95.54 -202.81)" fill="#f28f8f"/>
      <path id="Path_514" data-name="Path 514" d="M138.214,209.878,128.14,204.04h-.072c-3.441-1.943-8.183-1.653-13.432,1.374-10.55,6.086-19.095,20.893-19.095,33.064,0,6.086,2.129,10.333,5.569,12.4h0l9.372,5.363,1.695-2.821a19.633,19.633,0,0,0,5.476-2.129c10.539-6.1,19.095-20.9,19.095-33.064a20.728,20.728,0,0,0-.6-4.877Z" transform="translate(-95.54 -202.81)" fill="#35a7ff"/>
      <path id="Path_515" data-name="Path 515" d="M138.214,209.878,128.14,204.04h-.072c-3.441-1.943-8.183-1.653-13.432,1.374-10.55,6.086-19.095,20.893-19.095,33.064,0,6.086,2.129,10.333,5.569,12.4h0l9.372,5.363,1.695-2.821a19.633,19.633,0,0,0,5.476-2.129c10.539-6.1,19.095-20.9,19.095-33.064a20.728,20.728,0,0,0-.6-4.877Z" transform="translate(-95.54 -202.81)" opacity="0.4"/>
      <path id="Path_516" data-name="Path 516" d="M124,210.784c-10.55,6.1-19.095,20.9-19.095,33.064s8.545,17.111,19.095,11.025S143.1,233.981,143.1,221.809,134.554,204.7,124,210.784Z" transform="translate(-95.228 -202.632)" fill="#35a7ff"/>
      <path id="Path_517" data-name="Path 517" d="M116.18,246.423a.269.269,0,0,1-.3-.289,1.591,1.591,0,0,1,.165-.558l.961-2.159a1.1,1.1,0,0,1,.362-.537,1.167,1.167,0,0,1,.455-.1,9.3,9.3,0,0,0,2.521-.506,16.1,16.1,0,0,0,3.1-1.426,12.554,12.554,0,0,0,3.926-3.327,6.107,6.107,0,0,0,1.271-3.606c0-2.284-1.395-2.614-4.185-1.033l-2.717,1.643c-.444.248-.754.341-.94.258s-.279-.331-.279-.744v-.858a1.788,1.788,0,0,1,.279-1.033,2.779,2.779,0,0,1,.94-.806l2.7-1.56a7.377,7.377,0,0,0,2.666-2.469,5.549,5.549,0,0,0,.889-2.9q0-3.317-4.67-.62a20.273,20.273,0,0,0-5.1,4.133,3.255,3.255,0,0,1-.455.424.3.3,0,0,1-.362-.083l-.92-1.033a.517.517,0,0,1-.165-.372,1.033,1.033,0,0,1,.289-.63,19.8,19.8,0,0,1,3.1-3.1,31.287,31.287,0,0,1,4.247-2.914,13.329,13.329,0,0,1,4.391-1.746,3.462,3.462,0,0,1,2.862.568,3.42,3.42,0,0,1,1.033,2.759,8.442,8.442,0,0,1-.744,3.3,11.479,11.479,0,0,1-2.067,3.265,2.779,2.779,0,0,1,2.645.486,3.689,3.689,0,0,1,.878,2.707,10.839,10.839,0,0,1-2.294,6.3,20.2,20.2,0,0,1-6.489,5.642Q118.711,246.682,116.18,246.423Z" transform="translate(-94.863 -202.293)" fill="#fff"/>
    </g>
    <g id="freepik--Character--inject-50" transform="translate(295.718 232.639)">
      <path id="Path_518" data-name="Path 518" d="M325.875,354.163h0l.2-.176c.145-.124.3-.248.434-.382l.465-.455.465-.444a10.811,10.811,0,0,0,.775-.806l3.678,2.749,2.449,1.829a11.954,11.954,0,0,0-2.149,3.275s-.734,1.188-3.224.589C325.885,359.629,325.4,355.1,325.875,354.163Z" transform="translate(-285.81 -224.004)" fill="#ffa8a7"/>
      <path id="Path_519" data-name="Path 519" d="M291.04,354.268c-2.81-3.265-.31-8.69,2.418-15.726,3-7.739,7.626-20.893,7.626-20.893l32.868-6.789s35.017-.672,38.231,6.024c2.6,5.363-20.459,13.432-23.765,13.722l-20.242,1.064-2.129,1.033-14.218,17.989Z" transform="translate(-287.005 -225.37)" fill="#35a7ff"/>
      <path id="Path_520" data-name="Path 520" d="M350.332,322.212a82.719,82.719,0,0,0-7.119,8.266c-5.921,8.266-15.292,23.279-15.292,23.279s1.457,4.753,5.931,4.546c0,0,30.791-28.756,33.312-31.411,3.813-4.03,6.871-10.674.279-11.221S352.894,319.443,350.332,322.212Z" transform="translate(-285.737 -225.211)" fill="#35a7ff"/>
      <path id="Path_521" data-name="Path 521" d="M342.658,330.526s5.5-8.039,11.19-11.366c0,0-5.662,1.116-14.238,11.552Z" transform="translate(-285.348 -225.093)" fill="#35a7ff"/>
      <path id="Path_522" data-name="Path 522" d="M342.658,330.526s5.5-8.039,11.19-11.366c0,0-5.662,1.116-14.238,11.552Z" transform="translate(-285.348 -225.093)" opacity="0.1"/>
      <path id="Path_523" data-name="Path 523" d="M346.25,340.013l-2.16.413,2,7.409s1.943-.186,2.614-.145a11.027,11.027,0,0,0,2.8-1.085l-.517-4.526-2.377-2.48Z" transform="translate(-285.199 -224.413)" fill="#ffa8a7"/>
      <path id="Path_524" data-name="Path 524" d="M363.229,341.826a8.08,8.08,0,0,1,4.526,4.608,23.163,23.163,0,0,1,1.126,3.348c.341,1.2.176,3.234-1.343,3.565a2.511,2.511,0,0,1-1.436-.258c-3.048-1.178-6.024-2.542-9.144-3.534a30.358,30.358,0,0,0-8.318-1.808,5.755,5.755,0,0,0-.248-6.623,4.009,4.009,0,0,0-2.211-1.033c.785-.351,1.519-.806,2.273-1.23a6.892,6.892,0,0,1,4.825-1.188c1.3.279,2.294,1.312,3.4,2.066C358.786,341.113,360.821,341.02,363.229,341.826Z" transform="translate(-285.129 -224.479)" fill="#263238"/>
      <path id="Path_525" data-name="Path 525" d="M295.462,346.187c2.717-.837,7.057-1.581,19.932-2.242s30.492-3.554,30.492-3.554c3,2.883,2,7.409,2,7.409s-22.866,7.233-30.316,8.194c-11.862,1.529-15.954,1.416-21.306.269C290.255,354.969,286.463,348.945,295.462,346.187Z" transform="translate(-286.995 -224.387)" fill="#35a7ff"/>
      <path id="Path_526" data-name="Path 526" d="M341.17,286.65l9.671,23.114-6.923,4.257L330.61,291.486Z" transform="translate(-285.647 -226.174)" fill="#f28f8f"/>
      <path id="Path_527" data-name="Path 527" d="M321.47,265.57c5.29.062,11.108,1.984,13.112,6.127l8.266,17.049s-4.67,6.84-12.089,6.355Z" transform="translate(-285.951 -226.876)" fill="#e0e0e0"/>
      <path id="Path_528" data-name="Path 528" d="M287.441,300.663c.062-.9,1.354-5.29,2.738-10.023l10.043,3.472-2.7,8.5-8.462,8.029a13.308,13.308,0,0,1-1.622-9.981Z" transform="translate(-287.095 -226.042)" fill="#ffa8a7"/>
      <path id="Path_529" data-name="Path 529" d="M311.754,265.89c-6.3,1.519-14.889,3.492-17.38,10.333s-6.055,18.919-6.055,18.919c1.385,2.4,8.979,4.381,11.614,3l1.24-4.133v25.129c4.929,5.363,29.241,3.988,32.868-6.789V278.114c0-5.476-3.038-12.058-11.438-12.544Z" transform="translate(-287.054 -226.876)" fill="#fafafa"/>
      <path id="Path_530" data-name="Path 530" d="M300.73,293.43l3.162-9.95-3.162,14.4Z" transform="translate(-286.641 -226.28)" fill="#e0e0e0"/>
      <path id="Path_531" data-name="Path 531" d="M308.808,238.771a3.751,3.751,0,0,0-3.1,1.033c-1.333,1.364-1.033,3.885,0,9.671l4.133.465Z" transform="translate(-286.505 -227.768)" fill="#263238"/>
      <path id="Path_532" data-name="Path 532" d="M331.97,237.173a6.407,6.407,0,0,0,2.573-.527c1.261-.723,1.591.713.9,1.953a5.879,5.879,0,0,1-4.774,3.182c0-.176-1.178-3.213-1.178-3.213Z" transform="translate(-285.685 -227.844)" fill="#263238"/>
      <path id="Path_533" data-name="Path 533" d="M310.775,250.152c-.61.362-1.488-.806-2.242-1.6a2.645,2.645,0,0,0-4.433.723c-1.25,2.635,1.591,6.138,3.255,7.295a2.924,2.924,0,0,0,3.42.289l.434,10.074a10.736,10.736,0,0,0,8.1,6.148c5.91.8,4.691-4.081,2.748-6.468v-3.689a14.175,14.175,0,0,0,4.505.227c.765-.207,2.6-2.428,3.792-4.918,1.333-2.79,3.554-7.749,1.581-16.15-2.129-9.01-11.81-9.3-17.566-5.652S310.775,250.152,310.775,250.152Z" transform="translate(-286.539 -227.918)" fill="#ffa8a7"/>
      <path id="Path_534" data-name="Path 534" d="M310.635,251.379c-.31,0-1.478-1.932-2.242-2.624-1.033-.961.31-9.63.31-9.63s-1.033-3.3,1.033-5.476,6.117-1.819,9.072-1.922a26.554,26.554,0,0,0,10.539-2.118c4.2-1.819,4.505-2.067,5.022-.2s.723,6.055-1.777,8.876l-1.364,2.222s-1.271,1.033-5.166,1.55-10.57-1.622-11.366-1.736c-1.137-.155-1.374.94-1.984,3.937C312.133,246.894,311.668,251.358,310.635,251.379Z" transform="translate(-286.399 -228.121)" fill="#263238"/>
      <path id="Path_535" data-name="Path 535" d="M308.809,239.521l-3.7-1.984a2.067,2.067,0,0,1,2.8-.92,2.211,2.211,0,0,1,.9,2.9Z" transform="translate(-286.496 -227.846)" fill="#263238"/>
      <path id="Path_536" data-name="Path 536" d="M321.783,262.151s-5.476-1.106-7.388-2.067a6.334,6.334,0,0,1-2.645-2.625,8.681,8.681,0,0,0,1.509,3.1c1.395,1.788,8.524,3.1,8.524,3.1Z" transform="translate(-286.275 -227.145)" fill="#f28f8f"/>
      <path id="Path_537" data-name="Path 537" d="M321.7,249.477a1.1,1.1,0,1,1-1.1-1.137,1.116,1.116,0,0,1,1.1,1.137Z" transform="translate(-286.017 -227.449)" fill="#263238"/>
      <path id="Path_538" data-name="Path 538" d="M320.591,245.464l-2.356,1.292a1.426,1.426,0,0,1,.548-1.87,1.312,1.312,0,0,1,1.808.579Z" transform="translate(-286.064 -227.569)" fill="#263238"/>
      <path id="Path_539" data-name="Path 539" d="M321,256.54l2.511.951a1.323,1.323,0,0,1-1.7.827A1.405,1.405,0,0,1,321,256.54Z" transform="translate(-285.97 -227.176)" fill="#f28f8f"/>
      <path id="Path_540" data-name="Path 540" d="M331.169,246.391l-2.139-1.653a1.3,1.3,0,0,1,1.86-.279A1.416,1.416,0,0,1,331.169,246.391Z" transform="translate(-285.7 -227.587)" fill="#263238"/>
      <path id="Path_541" data-name="Path 541" d="M330.531,249.177a1.1,1.1,0,1,1-1.1-1.137,1.116,1.116,0,0,1,1.1,1.137Z" transform="translate(-285.723 -227.459)" fill="#263238"/>
      <path id="Path_542" data-name="Path 542" d="M325.493,249.01l-1.033,6.53,3.616-.424Z" transform="translate(-285.852 -227.427)" fill="#f28f8f"/>
      <path id="Path_543" data-name="Path 543" d="M363.955,321.2l-22.267-12.854a1.291,1.291,0,0,0-1.281,0L301.36,330.891l22.9,13.267Z" transform="translate(-286.62 -225.458)" fill="#37474f"/>
      <path id="Path_544" data-name="Path 544" d="M323.707,342.006,311.7,335.083l35.11-20.273,12.069,6.892Z" transform="translate(-286.276 -225.238)" fill="#263238"/>
      <path id="Path_545" data-name="Path 545" d="M317.61,322.689l.227.124,5.879,3.4,10.467-6.045.217-.124-6.107-3.523Z" transform="translate(-286.08 -225.181)" fill="#263238"/>
      <path id="Path_546" data-name="Path 546" d="M317.83,322.8l5.879,3.4,10.467-6.045-5.89-3.4Z" transform="translate(-286.072 -225.173)" fill="#263238"/>
      <path id="Path_547" data-name="Path 547" d="M301.36,330.473V331a2.159,2.159,0,0,0,1.033,1.86l20.748,11.976a2.139,2.139,0,0,0,2.149,0l37.549-21.7a2.17,2.17,0,0,0,1.033-1.86v-.527l-39.615,22.99Z" transform="translate(-286.62 -225.04)" fill="#263238"/>
      <path id="Path_548" data-name="Path 548" d="M323.52,343.739v1.426a2.067,2.067,0,0,0,1.033-.289l37.549-21.7a2.17,2.17,0,0,0,1.033-1.86v-.527Z" transform="translate(-285.883 -225.039)" fill="#263238"/>
      <path id="Path_549" data-name="Path 549" d="M324.11,344.885a2.552,2.552,0,0,0,2.191-.176l37.384-21.585a2.511,2.511,0,0,0,1.23-1.777l4.133-24.4a2.951,2.951,0,0,0,0-.424,2.563,2.563,0,0,0-.754-1.808l-38.851,22.432a1.87,1.87,0,0,0-.909,1.312Z" transform="translate(-285.864 -225.906)" fill="#263238"/>
      <path id="Path_550" data-name="Path 550" d="M323.52,344.617l.258.145a3.719,3.719,0,0,0,.351.176l4.422-26.421a1.87,1.87,0,0,1,.909-1.312l38.851-22.432a3.246,3.246,0,0,0-.517-.393l-38.923,22.432a1.891,1.891,0,0,0-.92,1.312Z" transform="translate(-285.883 -225.917)" fill="#455a64"/>
      <path id="Path_551" data-name="Path 551" d="M344.481,321.634a8.266,8.266,0,0,1,3.771-4.846c1.808-1.033,3.048-.568,2.779,1.033a8.266,8.266,0,0,1-3.771,4.846C345.452,323.752,344.213,323.225,344.481,321.634Z" transform="translate(-285.187 -225.19)" fill="#37474f"/>
      <path id="Path_552" data-name="Path 552" d="M297.462,302.311s6.706,25.832,9.537,27.681,8.1,3.2,10.622,4.133,3.668,2.2,3.234,2.552-4.071.734-5.332,1.178.372,2.48,3.162,4.639,5.166,1.963,4.856,3.4-6.53,2.872-11.779-.207-6.84-7.233-9.971-10.756S291.511,316.766,289,310.36c0,0,.238-11.9,4.133-11.149S297.462,302.311,297.462,302.311Z" transform="translate(-287.031 -225.758)" fill="#ffa8a7"/>
      <path id="Path_553" data-name="Path 553" d="M328.07,353.008c.475,1.147,2.118,4.309,5.776,4.133l8.989-8.411Z" transform="translate(-285.732 -224.109)" fill="#35a7ff"/>
      <path id="Path_554" data-name="Path 554" d="M328.07,353.008c.475,1.147,2.118,4.309,5.776,4.133l8.989-8.411Z" transform="translate(-285.732 -224.109)" opacity="0.1"/>
      <path id="Path_555" data-name="Path 555" d="M333.32,357.84a.509.509,0,0,1,0,.114A.509.509,0,0,0,333.32,357.84Z" transform="translate(-285.557 -223.806)" fill="#263238"/>
      <path id="Path_556" data-name="Path 556" d="M331,367.626a20.666,20.666,0,0,1,1.312-7.935h0a3.286,3.286,0,0,1-3.007.393c-3.007-.9-3.761-5.094-3.286-6h0c-.434.382-.889.744-1.333,1.116a6.851,6.851,0,0,0-2.841,4.081c-.207,1.312.4,2.6.7,3.906.579,2.48,0,5.063-.093,7.6a8.111,8.111,0,0,0,2.676,5.869,22.02,22.02,0,0,0,2.728,2.263,2.563,2.563,0,0,0,4.474-1.829C331.936,373.867,331.182,370.984,331,367.626Z" transform="translate(-285.94 -223.931)" fill="#263238"/>
      <path id="Path_557" data-name="Path 557" d="M334.024,356.35c-.279.527-.527,1.033-.744,1.54C333.538,357.394,333.786,356.877,334.024,356.35Z" transform="translate(-285.559 -223.856)" fill="#37474f"/>
      <path id="Path_558" data-name="Path 558" d="M325.86,354.086h0l.2-.176Z" transform="translate(-285.805 -223.937)" fill="#37474f"/>
    </g>
  </g>
</svg>
