<svg xmlns="http://www.w3.org/2000/svg" width="649.325" height="639.85" viewBox="0 0 649.325 639.85">
  <g id="Software_engineer-amico" data-name="Software engineer-amico" transform="translate(0 0)">
    <g id="freepik--Floor--inject-25" transform="translate(0 264.966)">
      <ellipse id="Ellipse_9" data-name="Ellipse 9" cx="324.662" cy="187.442" rx="324.662" ry="187.442" fill="#f5f5f5"/>
    </g>
    <g id="freepik--Shadows--inject-25" transform="translate(86.163 316.727)">
      <ellipse id="Ellipse_10" data-name="Ellipse 10" cx="39.57" cy="22.849" rx="39.57" ry="22.849" transform="translate(230.103 251.684)" fill="#e0e0e0"/>
      <path id="Path_253" data-name="Path 253" d="M325.923,418.732c10.155,5.858,10.155,15.36,0,21.274s-26.593,5.858-36.748,0-10.141-15.36,0-21.274S315.782,412.874,325.923,418.732Z" transform="translate(1.703 -178.068)" fill="#e0e0e0"/>
      <path id="Path_254" data-name="Path 254" d="M86.733,399.269l255.591-147.5a29.955,29.955,0,0,1,29.983,0l62.7,36.876a9.786,9.786,0,0,1,0,16.949l-255.577,147.5a30.054,30.054,0,0,1-30,0l-62.7-36.876a9.786,9.786,0,0,1,0-16.949Z" transform="translate(-81.841 -247.745)" fill="#e0e0e0"/>
      <path id="Path_255" data-name="Path 255" d="M322.465,348.061l81.595-47.428a36.308,36.308,0,0,1,36.294,0l75.851,44.52a11.843,11.843,0,0,1,0,20.509L434.61,413.09a36.308,36.308,0,0,1-36.294,0l-75.851-44.52a11.843,11.843,0,0,1,0-20.509Z" transform="translate(16.336 -227.654)" fill="#e0e0e0"/>
    </g>
    <g id="freepik--Plant--inject-25" transform="translate(186.939 457.572)">
      <path id="Path_256" data-name="Path 256" d="M189.9,414.745l-12.339,7.162s6.226-19.856,2.837-39.868a38.294,38.294,0,0,0-5.021-13.318c-.979-2.014-8.41-14.495-1.858-20.239s21.913,5.673,21.274,36.493A119.861,119.861,0,0,1,189.9,414.745Z" transform="translate(-145.387 -347.051)" fill="#35a7ff"/>
      <path id="Path_257" data-name="Path 257" d="M189.9,414.745l-12.339,7.162s6.226-19.856,2.837-39.868a38.294,38.294,0,0,0-5.021-13.318c-.979-2.014-8.41-14.495-1.858-20.239s21.913,5.673,21.274,36.493A119.861,119.861,0,0,1,189.9,414.745Z" transform="translate(-145.387 -347.051)" opacity="0.3"/>
      <path id="Path_258" data-name="Path 258" d="M182.4,417.144h-.2a.567.567,0,0,1-.326-.723c0-.128,4.638-12.906,4.4-33.472s-10.907-31.273-11.02-31.387a.562.562,0,1,1,.794-.794c.113.113,11.105,11.261,11.346,32.167s-4.425,33.741-4.468,33.869a.567.567,0,0,1-.525.34Z" transform="translate(-143.613 -345.563)" fill="#fff"/>
      <path id="Path_259" data-name="Path 259" d="M187.835,413l-20.381,12s-9.332-1.418-8.623-10.169,4.5-10.85-.227-14.708-5.943-4.127-5.673-7.914,2.837-5.432,3.971-6.921,4.539-4.652,2.184-9.219-5.531-8.978-.808-11.063c2.837-1.248,7.574.312,10.708,3.659s5.673,5.673,8.723,6.51,9.2.837,8.992,5.971-1.546,6.907-.3,9.191C188.7,394.634,198.727,396.946,187.835,413Z" transform="translate(-152.895 -339.719)" fill="#35a7ff"/>
      <path id="Path_260" data-name="Path 260" d="M177.346,417.7h0a.553.553,0,0,1-.511-.6c0-.312,2.184-30.181-18.537-49.768a.567.567,0,0,1,0-.794.539.539,0,0,1,.78,0c21.133,19.955,18.906,50.35,18.878,50.662a.539.539,0,0,1-.61.5Z" transform="translate(-150.703 -338.968)" fill="#fff"/>
      <path id="Path_261" data-name="Path 261" d="M169.251,388.214h0a.553.553,0,0,1-.511-.6,18.154,18.154,0,0,1,6.652-12.949.6.6,0,0,1,.794.128.582.582,0,0,1-.128.78,17.3,17.3,0,0,0-6.2,12.126.553.553,0,0,1-.61.511Z" transform="translate(-146.268 -335.539)" fill="#fff"/>
      <path id="Path_262" data-name="Path 262" d="M175.436,389.486a.553.553,0,0,1-.411-.184s-5.177-5.531-16.849-3.943a.558.558,0,1,1-.142-1.106c12.282-1.7,17.6,4.056,17.828,4.255a.582.582,0,0,1,0,.794.553.553,0,0,1-.425.184Z" transform="translate(-150.949 -331.62)" fill="#fff"/>
    </g>
    <g id="freepik--Device--inject-25" transform="translate(92.615 60.703)">
      <path id="Path_263" data-name="Path 263" d="M275.165,365.906l-42.01,23.912a21.587,21.587,0,0,1-21.445,0l-26.948-15.6-3.064-1.773a21.033,21.033,0,0,1-10.51-18.2V276.667l63.057-35.9v79.184a18.14,18.14,0,0,0,9.063,15.715l31.883,18.438a6.794,6.794,0,0,1-.028,11.8Z" transform="translate(-50.918 5.362)" fill="#263238"/>
      <path id="Path_264" data-name="Path 264" d="M208.54,362.822a21.416,21.416,0,0,0,8.992-2.752l42.01-23.884a6.794,6.794,0,0,0,0-11.786l-21.771-12.58H208.54Z" transform="translate(-35.295 35.082)" fill="#37474f"/>
      <path id="Path_265" data-name="Path 265" d="M244.025,317l1.163.922a8.013,8.013,0,0,1,3.007,6.255v3.929H243.94Z" transform="translate(-20.487 37.249)" fill="#37474f"/>
      <path id="Path_266" data-name="Path 266" d="M237.086,245v71.241a17.6,17.6,0,0,0,8.779,15.275l26.579,15.6a6.567,6.567,0,0,1,0,11.346l-3.021,1.716-37.656,21.445a20.877,20.877,0,0,1-20.75-.071l-26.125-15.417A17.558,17.558,0,0,1,176,350.975V279.734Z" transform="translate(-48.906 7.131)" fill="#455a64"/>
      <path id="Path_267" data-name="Path 267" d="M237.057,316.241V245L176.07,279.734v71.241a17.559,17.559,0,0,0,8.779,15.218l60.15-35.3a17.559,17.559,0,0,1-7.942-14.651Z" transform="translate(-48.877 7.131)" fill="#263238"/>
      <path id="Path_268" data-name="Path 268" d="M108.941,349.286l-5.829,3.376v10.651a20.636,20.636,0,0,1-10.623-2.936l-.454-.269a11.446,11.446,0,0,1-5.319-7.3,6.652,6.652,0,0,1-.326-2.014V336.28Z" transform="translate(-86.39 45.313)" fill="#263238"/>
      <path id="Path_269" data-name="Path 269" d="M362.086,70.435l-.454-.284a20.792,20.792,0,0,0-10.595-2.922h0a6.567,6.567,0,0,0-3.4.908L96.6,212.506A20.324,20.324,0,0,0,86.44,230.093v218.73l22.537,13.006,238.5-137.107a20.324,20.324,0,0,0,10.155-17.587V80.335h10.141a11.516,11.516,0,0,0-5.687-9.9Z" transform="translate(-86.369 -67.23)" fill="#37474f"/>
      <path id="Path_270" data-name="Path 270" d="M88.56,175.64a20.353,20.353,0,0,0-2.17,9.105v218.73l22.551,13.006,8.439-4.865V193.482Z" transform="translate(-86.39 -21.882)" fill="#263238"/>
      <path id="Path_271" data-name="Path 271" d="M93.55,386.594V401.1a6.652,6.652,0,0,0,9.928,5.758L354.517,262.493a20.324,20.324,0,0,0,10.155-17.587V230Z" transform="translate(-83.395 0.857)" fill="#37474f"/>
      <path id="Path_272" data-name="Path 272" d="M364.722,78.013a6.652,6.652,0,0,0-9.928-5.758L103.755,216.623A20.324,20.324,0,0,0,93.6,234.21V452.94L364.722,296.345" transform="translate(-83.374 -65.489)" fill="#455a64"/>
      <path id="Path_273" data-name="Path 273" d="M347.727,83.16h0a7.3,7.3,0,0,0-3.3.766l-236,135.646a17.941,17.941,0,0,0-8.978,15.6V421.466a5.943,5.943,0,0,0,.482,2.34h0a5.886,5.886,0,0,0,8.34,2.752l235.92-135.646a17.956,17.956,0,0,0,8.964-15.6V89.018a5.872,5.872,0,0,0-5.418-5.858Z" transform="translate(-80.931 -60.566)" fill="#35a7ff"/>
      <path id="Path_274" data-name="Path 274" d="M347.727,83.16h0a7.3,7.3,0,0,0-3.3.766l-236,135.646a17.941,17.941,0,0,0-8.978,15.6V421.466a5.943,5.943,0,0,0,.482,2.34h0a5.886,5.886,0,0,0,8.34,2.752l235.92-135.646a17.956,17.956,0,0,0,8.964-15.6V89.018a5.872,5.872,0,0,0-5.418-5.858Z" transform="translate(-80.931 -60.566)" fill="#fff" opacity="0.4"/>
    </g>
    <g id="freepik--Screen--inject-25" transform="translate(132.668 86.951)">
      <path id="Path_275" data-name="Path 275" d="M114.63,200.643V409.771c0,3.347,1.234,5.6,3.12,6.354h0l8.013,4.4V413.43l1.149-215-10.481-5.29a18.168,18.168,0,0,0-1.8,7.5Z" transform="translate(-114.63 -40.81)" fill="#e0e0e0"/>
      <path id="Path_276" data-name="Path 276" d="M115.9,238.038l10.481,5.29L379.944,94.62l6.042-3.5-8.354-4.709-.227-.142h0a4.836,4.836,0,0,0-5.007.369L121.715,231.159a15.389,15.389,0,0,0-5.815,6.879Z" transform="translate(-114.099 -85.737)" fill="#f0f0f0"/>
      <path id="Path_277" data-name="Path 277" d="M121,248.478V456.23c0,2.837.922,4.964,2.4,5.928l.468.27a4.936,4.936,0,0,0,4.624-.539L377.811,318.273c4.141-2.4,7.5-8.808,7.5-14.325V96.21c0-2.837-.865-4.822-2.241-5.829a2.921,2.921,0,0,0-.766-.425,4.964,4.964,0,0,0-4.5.6L128.545,234.168a15.091,15.091,0,0,0-5.546,6.5A18.225,18.225,0,0,0,121,248.478Z" transform="translate(-111.965 -84.093)" fill="#fff"/>
      <path id="Path_278" data-name="Path 278" d="M320.46,212.606,201.748,281.181a3.943,3.943,0,0,1-5.928-3.418v-63.54a18.523,18.523,0,0,1,9.247-16.027l115.988-66.972a5.673,5.673,0,0,1,8.51,4.907v60.774a18.154,18.154,0,0,1-9.105,15.7Z" transform="translate(-80.668 -67.028)" fill="#35a7ff"/>
      <path id="Path_279" data-name="Path 279" d="M214.757,270.5l-14.665,8.51c-2.567,1.489-4.652-.085-4.652-3.517v-15.3a11.176,11.176,0,0,1,4.652-8.907l14.665-8.51c2.567-1.489,4.652.085,4.652,3.517v15.261a11.134,11.134,0,0,1-4.652,8.949Z" transform="translate(-80.827 -20.283)" fill="#35a7ff"/>
      <path id="Path_280" data-name="Path 280" d="M239.977,256.01l-14.665,8.51c-2.567,1.418-4.652-.085-4.652-3.517V245.7a11.133,11.133,0,0,1,4.652-8.893l14.665-8.51c2.567-1.418,4.652.085,4.652,3.517v15.261A11.134,11.134,0,0,1,239.977,256.01Z" transform="translate(-70.278 -26.327)" fill="#35a7ff"/>
      <path id="Path_281" data-name="Path 281" d="M265.937,241.014l-14.665,8.51c-2.567,1.418-4.652-.085-4.652-3.517V230.689a11.176,11.176,0,0,1,4.652-8.893l14.665-8.51c2.567-1.418,4.652.1,4.652,3.532v15.261A11.133,11.133,0,0,1,265.937,241.014Z" transform="translate(-59.419 -32.605)" fill="#35a7ff"/>
      <path id="Path_282" data-name="Path 282" d="M291.907,226.014l-14.665,8.51c-2.567,1.418-4.652-.1-4.652-3.517V215.689a11.176,11.176,0,0,1,4.652-8.893l14.665-8.51c2.567-1.418,4.652.1,4.652,3.517v15.275a11.148,11.148,0,0,1-4.652,8.935Z" transform="translate(-48.556 -38.879)" fill="#35a7ff"/>
      <path id="Path_283" data-name="Path 283" d="M214.757,298.993l-14.665,8.51c-2.567,1.418-4.652-.1-4.652-3.517V288.668a11.148,11.148,0,0,1,4.652-8.893l14.665-8.51c2.567-1.489,4.652.1,4.652,3.517v15.275a11.176,11.176,0,0,1-4.652,8.935Z" transform="translate(-80.827 -8.365)" fill="#35a7ff"/>
      <path id="Path_284" data-name="Path 284" d="M239.977,284.5l-14.665,8.51c-2.567,1.489-4.652-.1-4.652-3.517V274.179a11.176,11.176,0,0,1,4.652-8.893l14.665-8.51c2.567-1.418,4.652.1,4.652,3.517v15.318a11.148,11.148,0,0,1-4.652,8.893Z" transform="translate(-70.278 -14.413)" fill="#35a7ff"/>
      <path id="Path_285" data-name="Path 285" d="M265.937,269.513l-14.665,8.51c-2.567,1.418-4.652-.1-4.652-3.517V259.188a11.148,11.148,0,0,1,4.652-8.893l14.665-8.51c2.567-1.489,4.652.085,4.652,3.517v15.318A11.176,11.176,0,0,1,265.937,269.513Z" transform="translate(-59.419 -20.697)" fill="#35a7ff"/>
      <path id="Path_286" data-name="Path 286" d="M291.907,254.5l-14.665,8.51c-2.567,1.489-4.652-.085-4.652-3.517v-15.3a11.134,11.134,0,0,1,4.652-8.893l14.665-8.51c2.567-1.489,4.652.085,4.652,3.517v15.261a11.133,11.133,0,0,1-4.652,8.935Z" transform="translate(-48.556 -26.972)" fill="#35a7ff"/>
      <g id="Group_18" data-name="Group 18" transform="translate(114.613 63.436)" opacity="0.7">
        <path id="Path_287" data-name="Path 287" d="M320.46,212.606,201.748,281.181a3.943,3.943,0,0,1-5.928-3.418v-63.54a18.523,18.523,0,0,1,9.247-16.027l115.988-66.972a5.673,5.673,0,0,1,8.51,4.907v60.774a18.154,18.154,0,0,1-9.105,15.7Z" transform="translate(-195.281 -130.464)" fill="#fff"/>
        <path id="Path_288" data-name="Path 288" d="M214.757,270.5l-14.665,8.51c-2.567,1.489-4.652-.085-4.652-3.517v-15.3a11.176,11.176,0,0,1,4.652-8.907l14.665-8.51c2.567-1.489,4.652.085,4.652,3.517v15.261a11.134,11.134,0,0,1-4.652,8.949Z" transform="translate(-195.44 -83.719)" fill="#fff"/>
        <path id="Path_289" data-name="Path 289" d="M239.977,256.01l-14.665,8.51c-2.567,1.418-4.652-.085-4.652-3.517V245.7a11.133,11.133,0,0,1,4.652-8.893l14.665-8.51c2.567-1.418,4.652.085,4.652,3.517v15.261A11.134,11.134,0,0,1,239.977,256.01Z" transform="translate(-184.891 -89.763)" fill="#fff"/>
        <path id="Path_290" data-name="Path 290" d="M265.937,241.014l-14.665,8.51c-2.567,1.418-4.652-.085-4.652-3.517V230.689a11.176,11.176,0,0,1,4.652-8.893l14.665-8.51c2.567-1.418,4.652.1,4.652,3.532v15.261A11.133,11.133,0,0,1,265.937,241.014Z" transform="translate(-174.032 -96.041)" fill="#fff"/>
        <path id="Path_291" data-name="Path 291" d="M291.907,226.014l-14.665,8.51c-2.567,1.418-4.652-.1-4.652-3.517V215.689a11.176,11.176,0,0,1,4.652-8.893l14.665-8.51c2.567-1.418,4.652.1,4.652,3.517v15.275a11.148,11.148,0,0,1-4.652,8.935Z" transform="translate(-163.168 -102.316)" fill="#fff"/>
        <path id="Path_292" data-name="Path 292" d="M214.757,298.993l-14.665,8.51c-2.567,1.418-4.652-.1-4.652-3.517V288.668a11.148,11.148,0,0,1,4.652-8.893l14.665-8.51c2.567-1.489,4.652.1,4.652,3.517v15.275a11.176,11.176,0,0,1-4.652,8.935Z" transform="translate(-195.44 -71.802)" fill="#fff"/>
        <path id="Path_293" data-name="Path 293" d="M239.977,284.5l-14.665,8.51c-2.567,1.489-4.652-.1-4.652-3.517V274.179a11.176,11.176,0,0,1,4.652-8.893l14.665-8.51c2.567-1.418,4.652.1,4.652,3.517v15.318a11.148,11.148,0,0,1-4.652,8.893Z" transform="translate(-184.891 -77.85)" fill="#fff"/>
        <path id="Path_294" data-name="Path 294" d="M265.937,269.513l-14.665,8.51c-2.567,1.418-4.652-.1-4.652-3.517V259.188a11.148,11.148,0,0,1,4.652-8.893l14.665-8.51c2.567-1.489,4.652.085,4.652,3.517v15.318A11.176,11.176,0,0,1,265.937,269.513Z" transform="translate(-174.032 -84.134)" fill="#fff"/>
        <path id="Path_295" data-name="Path 295" d="M291.907,254.5l-14.665,8.51c-2.567,1.489-4.652-.085-4.652-3.517v-15.3a11.134,11.134,0,0,1,4.652-8.893l14.665-8.51c2.567-1.489,4.652.085,4.652,3.517v15.261a11.133,11.133,0,0,1-4.652,8.935Z" transform="translate(-163.168 -90.408)" fill="#fff"/>
      </g>
      <path id="Path_296" data-name="Path 296" d="M204.423,384.425l-76.248,44a4.907,4.907,0,0,1-7.375-4.255V219.222L204.38,171Z" transform="translate(-112.049 -50.072)" fill="#35a7ff"/>
      <path id="Path_297" data-name="Path 297" d="M204.423,384.425l-76.248,44a4.907,4.907,0,0,1-7.375-4.255V219.222L204.38,171Z" transform="translate(-112.049 -50.072)" fill="#fff" opacity="0.7"/>
      <path id="Path_298" data-name="Path 298" d="M140.491,215.748a12.765,12.765,0,0,1-5.772,9.928c-3.177,1.844-5.758.355-5.758-3.319a12.765,12.765,0,0,1,5.758-9.928C137.909,210.586,140.491,212.146,140.491,215.748Z" transform="translate(-108.636 -33.067)" fill="#fafafa"/>
      <path id="Path_299" data-name="Path 299" d="M140.491,231.33a12.765,12.765,0,0,1-5.772,9.928c-3.177,1.844-5.758.355-5.758-3.319a12.765,12.765,0,0,1,5.758-10C137.909,226.167,140.491,227.656,140.491,231.33Z" transform="translate(-108.636 -26.566)" fill="#fafafa"/>
      <path id="Path_300" data-name="Path 300" d="M140.491,246.9a12.765,12.765,0,0,1-5.772,9.928c-3.177,1.844-5.758.355-5.758-3.333a12.765,12.765,0,0,1,5.758-9.928C137.909,241.682,140.491,243.228,140.491,246.9Z" transform="translate(-108.636 -20.054)" fill="#fafafa"/>
      <path id="Path_301" data-name="Path 301" d="M140.491,262.466a12.765,12.765,0,0,1-5.772,9.928c-3.177,1.844-5.758.34-5.758-3.333a12.765,12.765,0,0,1,5.758-9.928C137.909,257.289,140.491,258.779,140.491,262.466Z" transform="translate(-108.636 -13.537)" fill="#fafafa"/>
      <path id="Path_302" data-name="Path 302" d="M146.772,217.774a2.085,2.085,0,0,1-1.05-3.9l33.784-19.5a2.087,2.087,0,1,1,2.085,3.617l-33.784,19.5A2.114,2.114,0,0,1,146.772,217.774Z" transform="translate(-102.067 -40.412)" fill="#fafafa"/>
      <path id="Path_303" data-name="Path 303" d="M146.772,233.345a2.085,2.085,0,0,1-1.05-3.9l33.784-19.516a2.1,2.1,0,0,1,2.837.766,2.071,2.071,0,0,1-.766,2.837l-33.784,19.516a2.113,2.113,0,0,1-1.021.3Z" transform="translate(-102.067 -33.9)" fill="#fafafa"/>
      <path id="Path_304" data-name="Path 304" d="M146.765,248.9a2.085,2.085,0,0,1-1.05-3.886L179.5,225.5a2.1,2.1,0,0,1,2.837.766,2.071,2.071,0,0,1-.766,2.837l-33.784,19.516A2.085,2.085,0,0,1,146.765,248.9Z" transform="translate(-102.06 -27.387)" fill="#fafafa"/>
      <path id="Path_305" data-name="Path 305" d="M146.772,264.467a2.085,2.085,0,0,1-1.05-3.9l33.784-19.487a2.1,2.1,0,0,1,2.837.766,2.071,2.071,0,0,1-.766,2.837l-33.784,19.5a1.971,1.971,0,0,1-1.021.284Z" transform="translate(-102.067 -20.87)" fill="#fafafa"/>
      <path id="Path_306" data-name="Path 306" d="M133.622,304.171a2.085,2.085,0,0,1-1.05-3.9l52.392-30.238a2.085,2.085,0,1,1,2.085,3.6l-52.392,30.252A1.972,1.972,0,0,1,133.622,304.171Z" transform="translate(-107.568 -8.792)" fill="#fafafa"/>
      <path id="Path_307" data-name="Path 307" d="M133.622,317.152a2.085,2.085,0,0,1-1.05-3.9L184.965,283a2.1,2.1,0,0,1,2.837.766,2.071,2.071,0,0,1-.766,2.837l-52.392,30.252a1.971,1.971,0,0,1-1.021.3Z" transform="translate(-107.568 -3.335)" fill="#fafafa"/>
      <path id="Path_308" data-name="Path 308" d="M133.622,330.152a2.085,2.085,0,0,1-1.05-3.9L184.965,296a2.1,2.1,0,0,1,2.837.766,2.071,2.071,0,0,1-.766,2.837l-52.392,30.252a2.113,2.113,0,0,1-1.021.3Z" transform="translate(-107.568 2.103)" fill="#fafafa"/>
      <path id="Path_309" data-name="Path 309" d="M133.622,343.095a2.085,2.085,0,0,1-1.05-3.9l52.392-30.252a2.087,2.087,0,0,1,2.085,3.617l-52.392,30.252a2.114,2.114,0,0,1-1.035.284Z" transform="translate(-107.568 7.513)" fill="#fafafa"/>
      <path id="Path_310" data-name="Path 310" d="M121.2,301.7a.667.667,0,0,1-.6-.34.7.7,0,0,1,.241-.95L202,253.609a.681.681,0,0,1,.95.255.709.709,0,0,1-.255.95l-81.141,46.8A.809.809,0,0,1,121.2,301.7Z" transform="translate(-112.17 -15.558)" fill="#fafafa"/>
      <path id="Path_311" data-name="Path 311" d="M126.943,235.815,379.272,89.731a4.453,4.453,0,0,1,6.709,3.844v10.978L120.83,257.3v-8.595C120.83,244.311,123.156,238.028,126.943,235.815Z" transform="translate(-112.037 -84.323)" fill="#e6e6e6"/>
      <path id="Path_312" data-name="Path 312" d="M381.916,90.312a2.837,2.837,0,0,1,1.078.213,1.658,1.658,0,0,1,.468.284,5.914,5.914,0,0,1,1.745,4.836v209c0,5.049-3.163,11.148-6.921,13.3L127.53,462.445a4.78,4.78,0,0,1-2.354.723,2.6,2.6,0,0,1-1.092-.227l-.4-.213c-1.149-.794-1.8-2.567-1.8-4.893v-209a17.147,17.147,0,0,1,1.83-7.318,13.885,13.885,0,0,1,5.078-5.985L379.548,91.05a4.751,4.751,0,0,1,2.369-.738m0-1.262a6.085,6.085,0,0,0-2.993.893l-250.7,144.5a15.161,15.161,0,0,0-5.588,6.524,18.325,18.325,0,0,0-1.957,7.872v209c0,2.907.922,4.992,2.411,5.971l.482.269a3.843,3.843,0,0,0,1.659.369,6.084,6.084,0,0,0,2.993-.908L378.98,319.055c4.17-2.411,7.545-8.864,7.545-14.41v-209c0-2.837-.865-4.836-2.255-5.858a3.163,3.163,0,0,0-.766-.44,3.886,3.886,0,0,0-1.532-.3Z" transform="translate(-112.099 -84.351)" fill="#f0f0f0"/>
    </g>
    <g id="freepik--Crane--inject-25" transform="translate(366.887 40.983)">
      <path id="Path_313" data-name="Path 313" d="M333.61,211.927v6.6L362.784,208l22.948-48.336-10.765-1.432-19.4,40.365Z" transform="translate(-227.339 25.204)" fill="#37474f"/>
      <path id="Path_314" data-name="Path 314" d="M333.61,196.09l7.219,3.744v6.6l-7.219-3.744Z" transform="translate(-227.339 41.04)" fill="#455a64"/>
      <path id="Path_315" data-name="Path 315" d="M338.7,214.567v6.6l24.849-14.268,21.416-45.967-4.893-.057-19.417,40.365Z" transform="translate(-225.21 26.308)" fill="#263238"/>
      <path id="Path_316" data-name="Path 316" d="M378.87,253.056,421.178,168.1l14.183,5.616-34.493,89.821Z" transform="translate(-208.407 29.332)" fill="#37474f"/>
      <path id="Path_317" data-name="Path 317" d="M446.587,171.2h0c-2.44-1.418-5.829-1.22-9.559.936-7.446,4.255-13.488,14.75-13.488,23.359,0,4.695,1.815,7.857,4.666,9.063h0l15.942,9.29,19.019-33.032Z" transform="translate(-219.634 -4.4)" fill="#35a7ff"/>
      <ellipse id="Ellipse_11" data-name="Ellipse 11" cx="19.076" cy="11.02" rx="19.076" ry="11.02" transform="translate(215.304 204.118) rotate(-60)" fill="#35a7ff"/>
      <ellipse id="Ellipse_12" data-name="Ellipse 12" cx="19.076" cy="11.02" rx="19.076" ry="11.02" transform="translate(215.304 204.118) rotate(-60)" opacity="0.3"/>
      <path id="Path_318" data-name="Path 318" d="M453.887,188.143A15.162,15.162,0,0,1,447.05,200c-3.787,2.184-6.85.411-6.85-3.957a15.119,15.119,0,0,1,6.85-11.857C450.823,182,453.887,183.774,453.887,188.143Z" transform="translate(-212.665 1.021)" fill="#35a7ff"/>
      <path id="Path_319" data-name="Path 319" d="M453.887,188.143A15.162,15.162,0,0,1,447.05,200c-3.787,2.184-6.85.411-6.85-3.957a15.119,15.119,0,0,1,6.85-11.857C450.823,182,453.887,183.774,453.887,188.143Z" transform="translate(-212.665 1.021)" opacity="0.6"/>
      <path id="Path_320" data-name="Path 320" d="M393.22,183.437c.5.808,53.9,11.46,53.9,11.46s4.992-.752,4.992-5.46a6.4,6.4,0,0,0-4.5-6l-53.285-6.907Z" transform="translate(-232.316 -1.79)" fill="#37474f"/>
      <path id="Path_321" data-name="Path 321" d="M395.122,167.734h0c-1.688-.979-4.028-.837-6.609.652a20.594,20.594,0,0,0-9.332,16.154c0,3.248,1.262,5.432,3.234,6.269h0l11.034,6.4L406.6,174.371Z" transform="translate(-238.189 -5.731)" fill="#35a7ff"/>
      <path id="Path_322" data-name="Path 322" d="M406.141,178.556a20.594,20.594,0,0,1-9.389,16.183c-5.148,2.978-9.332.567-9.332-5.375a20.636,20.636,0,0,1,9.332-16.2C401.958,170.188,406.141,172.6,406.141,178.556Z" transform="translate(-234.743 -3.731)" fill="#35a7ff"/>
      <path id="Path_323" data-name="Path 323" d="M406.141,178.556a20.594,20.594,0,0,1-9.389,16.183c-5.148,2.978-9.332.567-9.332-5.375a20.636,20.636,0,0,1,9.332-16.2C401.958,170.188,406.141,172.6,406.141,178.556Z" transform="translate(-234.743 -3.731)" opacity="0.3"/>
      <path id="Path_324" data-name="Path 324" d="M400.174,179.459a10.51,10.51,0,0,1-4.737,8.2c-2.61,1.5-4.737.284-4.737-2.737a10.467,10.467,0,0,1,4.737-8.2C398.047,175.2,400.174,176.438,400.174,179.459Z" transform="translate(-233.371 -1.982)" fill="#35a7ff"/>
      <path id="Path_325" data-name="Path 325" d="M400.174,179.459a10.51,10.51,0,0,1-4.737,8.2c-2.61,1.5-4.737.284-4.737-2.737a10.467,10.467,0,0,1,4.737-8.2C398.047,175.2,400.174,176.438,400.174,179.459Z" transform="translate(-233.371 -1.982)" opacity="0.6"/>
      <ellipse id="Ellipse_13" data-name="Ellipse 13" cx="35.755" cy="20.636" rx="35.755" ry="20.636" transform="translate(48.14 408.828) rotate(-72.46)" fill="#37474f"/>
      <path id="Path_326" data-name="Path 326" d="M305.18,337.56l17.771,10.963L349.672,282.7l-2.057-1.39Z" transform="translate(-239.231 76.688)" fill="#37474f"/>
      <ellipse id="Ellipse_14" data-name="Ellipse 14" cx="35.755" cy="20.636" rx="35.755" ry="20.636" transform="translate(66.296 419.986) rotate(-72.46)" fill="#263238"/>
      <ellipse id="Ellipse_15" data-name="Ellipse 15" cx="34.578" cy="20.636" rx="34.578" ry="20.636" transform="translate(172.729 406.879) rotate(-72.46)" fill="#37474f"/>
      <path id="Path_327" data-name="Path 327" d="M392.37,338.158l18.807,11.673L436.394,283l-18.367-8.751Z" transform="translate(-202.76 73.735)" fill="#37474f"/>
      <path id="Path_328" data-name="Path 328" d="M323.97,236.868l68.305,38.79,51.867-30.181L376.56,206.8Z" transform="translate(-231.372 45.52)" fill="#35a7ff"/>
      <path id="Path_329" data-name="Path 329" d="M444.147,245.477l-17.715,10.311h-.014l-2.638,1.546-31.5,18.324-68.319-38.79L356.2,218.444l2.482-1.432L376.565,206.8Z" transform="translate(-231.376 45.52)" opacity="0.2"/>
      <path id="Path_330" data-name="Path 330" d="M452.056,258.5v90.317L434.341,359.1l-2.468,1.418-17.02,9.843c-4.255-13.6-15.942-16.537-27.16-6.269a48.138,48.138,0,0,0-11.134,16.282V359.313l23.572-70.631,31.5-18.324,2.638-1.546h0Z" transform="translate(-239.285 32.497)" fill="#35a7ff"/>
      <path id="Path_331" data-name="Path 331" d="M452.056,258.5v90.317L434.341,359.1l-2.468,1.418-17.02,9.843c-4.255-13.6-15.942-16.537-27.16-6.269a48.138,48.138,0,0,0-11.134,16.282V359.313l23.572-70.631,31.5-18.324,2.638-1.546h0Z" transform="translate(-239.285 32.497)" opacity="0.4"/>
      <path id="Path_332" data-name="Path 332" d="M307.35,277.8l68.305,38.79v21.076l-14.112-7.7v22.3L320.625,328.8V306.35l-13.275-7.489Z" transform="translate(-238.324 75.22)" fill="#35a7ff"/>
      <path id="Path_333" data-name="Path 333" d="M330.922,228,307.35,298.631l68.305,38.79,23.572-70.631Z" transform="translate(-238.324 54.388)" fill="#35a7ff"/>
      <path id="Path_334" data-name="Path 334" d="M330.922,228,307.35,298.631l68.305,38.79,23.572-70.631Z" transform="translate(-238.324 54.388)" fill="#fff" opacity="0.2"/>
      <path id="Path_335" data-name="Path 335" d="M382.594,346.716,368.5,339c-4.5,8.907-6.907,19.019-6.056,27.784,1.574,16.041,13.474,21.445,26.579,12.07,9.134-6.538,16.424-18.509,19.487-30.607Z" transform="translate(-245.262 66.17)" fill="#37474f"/>
      <path id="Path_336" data-name="Path 336" d="M346.77,361.081l18.807,11.673L392.3,306.944l-2.042-1.4Z" transform="translate(-221.834 86.823)" fill="#37474f"/>
      <ellipse id="Ellipse_16" data-name="Ellipse 16" cx="35.755" cy="20.636" rx="35.755" ry="20.636" transform="translate(124.333 453.001) rotate(-72.46)" fill="#37474f"/>
      <ellipse id="Ellipse_17" data-name="Ellipse 17" cx="35.755" cy="20.636" rx="35.755" ry="20.636" transform="translate(126.329 454.369) rotate(-72.46)" fill="#455a64"/>
      <ellipse id="Ellipse_18" data-name="Ellipse 18" cx="16.14" cy="9.318" rx="16.14" ry="9.318" transform="translate(144.512 440.074) rotate(-72.46)" fill="#263238"/>
      <path id="Path_337" data-name="Path 337" d="M401.549,350.807a24.593,24.593,0,0,1-5.985,18.92c-4.255,4.383-8.623,3.007-9.63-3.049a24.565,24.565,0,0,1,5.971-18.92C396.216,343.375,400.528,344.737,401.549,350.807Z" transform="translate(-235.426 68.759)" fill="#35a7ff"/>
      <path id="Path_338" data-name="Path 338" d="M398.119,351.966a17.6,17.6,0,0,1-4.028,12.765c-2.837,2.993-5.531,2.142-6.113-1.929a17.615,17.615,0,0,1,4.042-12.765C394.814,347.044,397.551,347.9,398.119,351.966Z" transform="translate(-234.535 70.04)" fill="#263238"/>
      <ellipse id="Ellipse_19" data-name="Ellipse 19" cx="35.755" cy="20.636" rx="35.755" ry="20.636" transform="translate(188.993 416.997) rotate(-72.46)" fill="#37474f"/>
      <ellipse id="Ellipse_20" data-name="Ellipse 20" cx="35.755" cy="20.636" rx="35.755" ry="20.636" transform="translate(190.979 418.352) rotate(-72.46)" fill="#455a64"/>
      <path id="Path_339" data-name="Path 339" d="M449.646,325.051a25.3,25.3,0,0,1-6.879,21.771c-5.375,4.907-10.992,3.134-12.566-3.971S431.7,326,437.08,321.08,448.072,317.946,449.646,325.051Z" transform="translate(-217.019 57.511)" fill="#263238"/>
      <ellipse id="Ellipse_21" data-name="Ellipse 21" cx="14.027" cy="7.148" rx="14.027" ry="7.148" transform="translate(211.959 402.721) rotate(-72.46)" fill="#35a7ff"/>
      <path id="Path_340" data-name="Path 340" d="M443.719,326.564a17.559,17.559,0,0,1-4.042,12.765c-2.837,2.993-5.531,2.127-6.1-1.929a17.545,17.545,0,0,1,4.042-12.765C440.415,321.643,443.152,322.508,443.719,326.564Z" transform="translate(-215.461 59.416)" fill="#263238"/>
      <path id="Path_341" data-name="Path 341" d="M389.893,266.77l-10.042,30.054-2.61,7.829-5.333,16-1.886,5.645-9.488-5.375L312.44,293.6l19.87-59.554,8.113,4.609,13.261,7.545,10.737,6.1,5.262,2.993Z" transform="translate(-236.195 56.919)" fill="#37474f"/>
      <path id="Path_342" data-name="Path 342" d="M438.014,277.2v90.289l-2.468,1.418a1.261,1.261,0,0,1-.184-.667V278.748l-67.085-38.407a1.247,1.247,0,0,1-.5-.482l2.482-1.418L438,277.216Z" transform="translate(-242.958 24.106)" fill="#35a7ff"/>
      <g id="Group_19" data-name="Group 19" transform="translate(124.822 262.546)" opacity="0.5">
        <path id="Path_343" data-name="Path 343" d="M438.014,277.2v90.289l-2.468,1.418a1.261,1.261,0,0,1-.184-.667V278.748l-67.085-38.407a1.247,1.247,0,0,1-.5-.482l2.482-1.418L438,277.216Z" transform="translate(-367.78 -238.44)"/>
      </g>
      <path id="Path_344" data-name="Path 344" d="M363.656,319.292l-1.886,5.645-9.488-5.375L332.17,237.3l13.261,7.545Z" transform="translate(-227.942 58.279)" fill="#455a64"/>
      <path id="Path_345" data-name="Path 345" d="M364.521,291.44l-2.61,7.829L349.09,246.92l5.262,2.993Z" transform="translate(-220.864 62.303)" fill="#455a64"/>
      <path id="Path_346" data-name="Path 346" d="M404.419,297.975,359.97,324.44l20.636-61.824,23.813-13.857Z" transform="translate(-216.313 63.072)" fill="#37474f"/>
      <path id="Path_347" data-name="Path 347" d="M408.34,289.638l-8.85,5.106V245.43l8.85-5.12Z" transform="translate(-199.782 59.538)" fill="#37474f"/>
      <path id="Path_348" data-name="Path 348" d="M279.8,200.212v89.353a2.709,2.709,0,0,0,1.333,2.723h0l3.418,1.886v-3.049l.482-91.906-4.482-2.269a7.814,7.814,0,0,0-.752,3.262Z" transform="translate(-279.772 6.751)" fill="#35a7ff"/>
      <path id="Path_349" data-name="Path 349" d="M280.33,216.176l4.482,2.269L393.2,154.905l2.581-1.5-3.56-2.014h-.113a2.028,2.028,0,0,0-2.128.156L282.784,213.3A6.724,6.724,0,0,0,280.33,216.176Z" transform="translate(-279.538 -12.403)" fill="#35a7ff"/>
      <path id="Path_350" data-name="Path 350" d="M280.33,216.176l4.482,2.269L393.2,154.905l2.581-1.5-3.56-2.014h-.113a2.028,2.028,0,0,0-2.128.156L282.784,213.3A6.724,6.724,0,0,0,280.33,216.176Z" transform="translate(-279.538 -12.403)" fill="#fff" opacity="0.2"/>
      <path id="Path_351" data-name="Path 351" d="M282.535,220.651v88.8a2.936,2.936,0,0,0,1.021,2.539l.213.113a2.113,2.113,0,0,0,1.971-.227l106.542-61.4a7.659,7.659,0,0,0,3.205-6.113v-88.8a2.993,2.993,0,0,0-.95-2.5,1.417,1.417,0,0,0-.326-.184,2.17,2.17,0,0,0-1.929.255L285.74,214.524a6.425,6.425,0,0,0-2.369,2.837A7.687,7.687,0,0,0,282.535,220.651Z" transform="translate(-278.622 -11.731)" fill="#35a7ff"/>
      <path id="Path_352" data-name="Path 352" d="M282.535,220.651v88.8a2.936,2.936,0,0,0,1.021,2.539l.213.113a2.113,2.113,0,0,0,1.971-.227l106.542-61.4a7.659,7.659,0,0,0,3.205-6.113v-88.8a2.993,2.993,0,0,0-.95-2.5,1.417,1.417,0,0,0-.326-.184,2.17,2.17,0,0,0-1.929.255L285.74,214.524a6.425,6.425,0,0,0-2.369,2.837A7.687,7.687,0,0,0,282.535,220.651Z" transform="translate(-278.622 -11.731)" opacity="0.2"/>
      <text id="_" data-name="/" transform="translate(22.712 265.729)" fill="#fafafa" font-size="52" font-family="SegoeUI-Bold, Segoe UI" font-weight="700"><tspan x="0" y="0">/</tspan></text>
      <path id="Path_353" data-name="Path 353" d="M394.055,153.039a1.007,1.007,0,0,1,.454.1.525.525,0,0,1,.213.113,2.553,2.553,0,0,1,.737,2.071v89.353a7.233,7.233,0,0,1-2.95,5.673l-107.195,61.71a2,2,0,0,1-1.007.326,1.12,1.12,0,0,1-.454-.1l-.17-.085a2.454,2.454,0,0,1-.78-2.1V220.748a7.461,7.461,0,0,1,.78-3.134,6.07,6.07,0,0,1,2.17-2.553l107.195-61.71a2.113,2.113,0,0,1,1.007-.312m0-.539a2.624,2.624,0,0,0-1.276.383L285.584,214.65a6.339,6.339,0,0,0-2.383,2.837,7.7,7.7,0,0,0-.837,3.361V310.2a2.978,2.978,0,0,0,1.021,2.553l.213.113a1.674,1.674,0,0,0,.709.156,2.51,2.51,0,0,0,1.276-.4l107.2-61.753a7.744,7.744,0,0,0,3.22-6.155V155.365a3.007,3.007,0,0,0-.964-2.51,1.421,1.421,0,0,0-.326-.184,1.674,1.674,0,0,0-.652-.128Z" transform="translate(-278.693 -11.842)" fill="#35a7ff"/>
      <path id="Path_354" data-name="Path 354" d="M346.06,125.731l24.749,31.415,6.014,3.234-25.444-37.67Z" transform="translate(-222.131 10.346)" fill="#455a64"/>
      <path id="Path_355" data-name="Path 355" d="M334.53,135.375V140.3L357.166,127.4l24.48,33.344,2.723-2.737L358.414,121.83Z" transform="translate(-226.954 9.978)" fill="#263238"/>
      <path id="Path_356" data-name="Path 356" d="M360.844,123.307,352.6,118.3,328.72,132.086l8.24,4.765Z" transform="translate(-229.385 8.501)" fill="#37474f"/>
      <path id="Path_357" data-name="Path 357" d="M328.72,128.02v4.766l8.24,4.921v-4.921Z" transform="translate(-229.385 12.567)" fill="#455a64"/>
      <path id="Path_358" data-name="Path 358" d="M367.5,353.49a2,2,0,0,1-1.007-.284l-22.211-12.765a5.517,5.517,0,0,1-2.751-4.78V319.2a1.971,1.971,0,0,1,1.007-1.744,2,2,0,0,1,2.028,0l22.2,12.765a5.531,5.531,0,0,1,2.766,4.78v16.41a2.014,2.014,0,0,1-1.007,1.745,2.057,2.057,0,0,1-1.021.34Zm-.4-1.319a.823.823,0,0,0,1.22-.709v-16.41a4.255,4.255,0,0,0-2.156-3.73l-22.211-12.765a.794.794,0,0,0-.808,0,.823.823,0,0,0-.411.709v16.41a4.34,4.34,0,0,0,2.156,3.744Z" transform="translate(-253.938 57.041)" fill="#455a64"/>
      <rect id="Rectangle_154" data-name="Rectangle 154" width="1.206" height="30.919" transform="translate(87.886 378.355) rotate(-60)" fill="#455a64"/>
      <rect id="Rectangle_155" data-name="Rectangle 155" width="1.206" height="30.919" transform="translate(87.888 382.922) rotate(-60)" fill="#455a64"/>
      <rect id="Rectangle_156" data-name="Rectangle 156" width="1.206" height="30.919" transform="translate(87.887 387.439) rotate(-60)" fill="#455a64"/>
      <rect id="Rectangle_157" data-name="Rectangle 157" width="1.206" height="30.919" transform="translate(87.889 391.992) rotate(-60)" fill="#455a64"/>
      <path id="Path_359" data-name="Path 359" d="M316.853,294.935l-9.5-5.489V283.83l9.5,5.489Z" transform="translate(-238.324 77.742)" fill="#fff"/>
      <path id="Path_360" data-name="Path 360" d="M358.313,318.241l-9.5-5.489v-5.6l9.5,5.475Z" transform="translate(-220.981 87.497)" fill="#fff"/>
      <path id="Path_361" data-name="Path 361" d="M299,133.989v49.158a1.5,1.5,0,0,0,.737,1.5h0l1.872,1.035v-1.674l.227-50.548-2.468-1.234a4.113,4.113,0,0,0-.369,1.759Z" transform="translate(-271.732 -20.321)" fill="#35a7ff"/>
      <path id="Path_362" data-name="Path 362" d="M299.29,142.774l2.468,1.234,59.568-34.933,1.418-.823-1.957-1.106h0a1.149,1.149,0,0,0-1.177.085l-58.944,34.039a3.6,3.6,0,0,0-1.376,1.5Z" transform="translate(-271.607 -30.865)" fill="#35a7ff"/>
      <path id="Path_363" data-name="Path 363" d="M299.29,142.774l2.468,1.234,59.568-34.933,1.418-.823-1.957-1.106h0a1.149,1.149,0,0,0-1.177.085l-58.944,34.039a3.6,3.6,0,0,0-1.376,1.5Z" transform="translate(-271.607 -30.865)" fill="#fff" opacity="0.2"/>
      <path id="Path_364" data-name="Path 364" d="M300.5,145.253v48.832a1.6,1.6,0,0,0,.553,1.418l.113.071a1.191,1.191,0,0,0,1.092-.128l58.59-33.755a4.255,4.255,0,0,0,1.759-3.376V109.469a1.631,1.631,0,0,0-.525-1.418.525.525,0,0,0-.17-.1,1.177,1.177,0,0,0-1.064.128l-58.59,33.77a3.56,3.56,0,0,0-1.3,1.518A4.255,4.255,0,0,0,300.5,145.253Z" transform="translate(-271.105 -30.507)" fill="#35a7ff"/>
      <path id="Path_365" data-name="Path 365" d="M300.5,145.253v48.832a1.6,1.6,0,0,0,.553,1.418l.113.071a1.191,1.191,0,0,0,1.092-.128l58.59-33.755a4.255,4.255,0,0,0,1.759-3.376V109.469a1.631,1.631,0,0,0-.525-1.418.525.525,0,0,0-.17-.1,1.177,1.177,0,0,0-1.064.128l-58.59,33.77a3.56,3.56,0,0,0-1.3,1.518A4.255,4.255,0,0,0,300.5,145.253Z" transform="translate(-271.105 -30.507)" opacity="0.2"/>
      <text id="C_" data-name="C++" transform="translate(38.192 142.752)" fill="#fafafa" font-size="21" font-family="SegoeUI-Bold, Segoe UI" font-weight="700"><tspan x="0" y="0">C++</tspan></text>
      <path id="Path_366" data-name="Path 366" d="M361.829,108.1a.553.553,0,0,1,.255,0h.113a1.418,1.418,0,0,1,.4,1.149v49.116a3.985,3.985,0,0,1-1.617,3.134l-58.944,34.039a1.12,1.12,0,0,1-.553.17.68.68,0,0,1-.255,0h-.085a1.419,1.419,0,0,1-.44-1.163V145.335a3.956,3.956,0,0,1,.44-1.73,3.134,3.134,0,0,1,1.191-1.418l58.944-33.968a1.121,1.121,0,0,1,.553-.17m0-.3a1.489,1.489,0,0,0-.709.213L302.176,142a3.616,3.616,0,0,0-1.3,1.532,4.341,4.341,0,0,0-.468,1.858v49.116a1.617,1.617,0,0,0,.567,1.418h.113a.95.95,0,0,0,.4.085,1.418,1.418,0,0,0,.695-.213l58.944-34.039a4.255,4.255,0,0,0,1.773-3.39V109.324a1.617,1.617,0,0,0-.525-1.418.808.808,0,0,0-.184-.113.993.993,0,0,0-.355,0Z" transform="translate(-271.146 -30.561)" fill="#35a7ff"/>
      <path id="Path_367" data-name="Path 367" d="M299,80.23V129.2c0,.78.284,1.319.737,1.418h0l1.872,1.035v-1.674l.27-50.35L299.425,78.4A4.113,4.113,0,0,0,299,80.23Z" transform="translate(-271.728 -42.838)" fill="#35a7ff"/>
      <path id="Path_368" data-name="Path 368" d="M299.29,88.959l2.454,1.234,59.384-34.805,1.418-.823-1.957-1.106h0a1.092,1.092,0,0,0-1.177.085L300.694,87.371a3.673,3.673,0,0,0-1.4,1.588Z" transform="translate(-271.607 -53.326)" fill="#35a7ff"/>
      <path id="Path_369" data-name="Path 369" d="M299.29,88.959l2.454,1.234,59.384-34.805,1.418-.823-1.957-1.106h0a1.092,1.092,0,0,0-1.177.085L300.694,87.371a3.673,3.673,0,0,0-1.4,1.588Z" transform="translate(-271.607 -53.326)" fill="#fff" opacity="0.2"/>
      <path id="Path_370" data-name="Path 370" d="M300.493,91.424v48.648a1.617,1.617,0,0,0,.567,1.418h.113a1.135,1.135,0,0,0,1.078-.128l58.377-33.543a4.255,4.255,0,0,0,1.745-3.361V55.768a1.631,1.631,0,0,0-.525-1.418l-.17-.1a1.149,1.149,0,0,0-1.049.142L302.252,88.076a3.658,3.658,0,0,0-1.3,1.518,4.254,4.254,0,0,0-.454,1.83Z" transform="translate(-271.108 -52.968)" fill="#35a7ff"/>
      <path id="Path_371" data-name="Path 371" d="M300.493,91.424v48.648a1.617,1.617,0,0,0,.567,1.418h.113a1.135,1.135,0,0,0,1.078-.128l58.377-33.543a4.255,4.255,0,0,0,1.745-3.361V55.768a1.631,1.631,0,0,0-.525-1.418l-.17-.1a1.149,1.149,0,0,0-1.049.142L302.252,88.076a3.658,3.658,0,0,0-1.3,1.518,4.254,4.254,0,0,0-.454,1.83Z" transform="translate(-271.108 -52.968)" opacity="0.2"/>
      <text id="_2" data-name="{}" transform="translate(42.887 65.342)" fill="#fafafa" font-size="29" font-family="SegoeUI-Bold, Segoe UI" font-weight="700"><tspan x="0" y="0">{}</tspan></text>
      <path id="Path_372" data-name="Path 372" d="M361.589,54.391a.808.808,0,0,1,.255,0h.113a1.419,1.419,0,0,1,.4,1.135v48.931a3.957,3.957,0,0,1-1.617,3.12l-58.718,33.841a1.12,1.12,0,0,1-.553.17.411.411,0,0,1-.241,0h-.1a1.418,1.418,0,0,1-.425-1.149V91.508a3.929,3.929,0,0,1,.425-1.716,3.3,3.3,0,0,1,1.191-1.418l58.718-33.826a1.121,1.121,0,0,1,.553-.17m0-.3a1.276,1.276,0,0,0-.7.213L302.162,88.132a3.617,3.617,0,0,0-1.3,1.532,4.256,4.256,0,0,0-.454,1.844V140.5a1.574,1.574,0,0,0,.567,1.418h.113a.851.851,0,0,0,.383.085,1.418,1.418,0,0,0,.695-.213l58.732-33.841a4.255,4.255,0,0,0,1.759-3.376V55.639a1.645,1.645,0,0,0-.525-1.418.469.469,0,0,0-.184-.1.723.723,0,0,0-.355-.071Z" transform="translate(-271.147 -53.024)" fill="#35a7ff"/>
    </g>
    <g id="freepik--Gears--inject-25" transform="translate(15.147 0)">
      <path id="Path_373" data-name="Path 373" d="M235.8,91.214a6.127,6.127,0,0,1,1.73-3.815l5.531-5.588a3.517,3.517,0,0,0,.964-3.22L242.61,71.84a1.418,1.418,0,0,0-.709-.936h0l-7.829-3.829-.184-.1a1.418,1.418,0,0,0-1.418.213l-2.241,1.929,2.326-7.091a1.759,1.759,0,0,0-.894-2.127h0l-7.772-3.872h0a1.787,1.787,0,0,0-.624-.2l-5.049-.652a2.383,2.383,0,0,0-1.915.624h0a2.212,2.212,0,0,0-.567.78L212,65.089a4.382,4.382,0,0,1-1.716,1.971l-.255-.695a1.418,1.418,0,0,0-.695-.738h0l-7.7-3.758-.241-.113h0a1.3,1.3,0,0,0-1.418.3l-6.6,6.666a4.255,4.255,0,0,0-1.007,1.659,4.113,4.113,0,0,0-.128,1.815l.95,6.07a3.12,3.12,0,0,1-.511,2.2l-3.758,5.843a2.95,2.95,0,0,1-.808.865,3.177,3.177,0,0,1-1.815.582h-4.255a2.836,2.836,0,0,0-.766.1,2.964,2.964,0,0,0-2,1.83l-3.773,10.325a1.588,1.588,0,0,0,.709,1.943h0l5.588,2.737a1.887,1.887,0,0,1,0,.752l-.624,5.787a3.475,3.475,0,0,1-.284,1.064,3.872,3.872,0,0,1-.837,1.3l-5.673,5.9a3.674,3.674,0,0,0-.865,1.418,3.574,3.574,0,0,0,0,1.815L175.1,130.1a1.078,1.078,0,0,0,.61.738h0l7.8,3.815h0a1.05,1.05,0,0,0,1.191-.113l2.539-2.085-2.127,7.347a1.419,1.419,0,0,0,0,.5h0a1.674,1.674,0,0,0,.979,1.418h0l7.588,3.688h0a1.418,1.418,0,0,0,.78.312l4.383.553a2.752,2.752,0,0,0,2.837-1.6l3.73-8.34a4.4,4.4,0,0,1,1.815-1.986l.2.553a1.291,1.291,0,0,0,.794.794h0l7.7,3.773h0a1.319,1.319,0,0,0,1.418-.227l6.709-6.141a3.347,3.347,0,0,0,1.05-2.936l-.95-6.709a4.766,4.766,0,0,1,.723-3.248l3.064-4.751a4.326,4.326,0,0,1,3.617-1.971h4.085a2.425,2.425,0,0,0,2.439-1.475l3.716-9.928a2.028,2.028,0,0,0-.879-2.439h-.156l-5.134-2.51a2,2,0,0,1,0-.652Zm-24.678-4.808a13.275,13.275,0,0,1,5.5-2.411,14.183,14.183,0,0,1,1.418,5.375c.837,8.992-4.453,20.509-11.829,25.742a14.31,14.31,0,0,1-5.4,2.482,13.7,13.7,0,0,1-1.56-5.46C198.515,103.156,203.805,91.625,211.124,86.406Z" transform="translate(27.477 -11.577)" fill="#35a7ff"/>
      <path id="Path_374" data-name="Path 374" d="M235.8,91.214a6.127,6.127,0,0,1,1.73-3.815l5.531-5.588a3.517,3.517,0,0,0,.964-3.22L242.61,71.84a1.418,1.418,0,0,0-.709-.936h0l-7.829-3.829-.184-.1a1.418,1.418,0,0,0-1.418.213l-2.241,1.929,2.326-7.091a1.759,1.759,0,0,0-.894-2.127h0l-7.772-3.872h0a1.787,1.787,0,0,0-.624-.2l-5.049-.652a2.383,2.383,0,0,0-1.915.624h0a2.212,2.212,0,0,0-.567.78L212,65.089a4.382,4.382,0,0,1-1.716,1.971l-.255-.695a1.418,1.418,0,0,0-.695-.738h0l-7.7-3.758-.241-.113h0a1.3,1.3,0,0,0-1.418.3l-6.6,6.666a4.255,4.255,0,0,0-1.007,1.659,4.113,4.113,0,0,0-.128,1.815l.95,6.07a3.12,3.12,0,0,1-.511,2.2l-3.758,5.843a2.95,2.95,0,0,1-.808.865,3.177,3.177,0,0,1-1.815.582h-4.255a2.836,2.836,0,0,0-.766.1,2.964,2.964,0,0,0-2,1.83l-3.773,10.325a1.588,1.588,0,0,0,.709,1.943h0l5.588,2.737a1.887,1.887,0,0,1,0,.752l-.624,5.787a3.475,3.475,0,0,1-.284,1.064,3.872,3.872,0,0,1-.837,1.3l-5.673,5.9a3.674,3.674,0,0,0-.865,1.418,3.574,3.574,0,0,0,0,1.815L175.1,130.1a1.078,1.078,0,0,0,.61.738h0l7.8,3.815h0a1.05,1.05,0,0,0,1.191-.113l2.539-2.085-2.127,7.347a1.419,1.419,0,0,0,0,.5h0a1.674,1.674,0,0,0,.979,1.418h0l7.588,3.688h0a1.418,1.418,0,0,0,.78.312l4.383.553a2.752,2.752,0,0,0,2.837-1.6l3.73-8.34a4.4,4.4,0,0,1,1.815-1.986l.2.553a1.291,1.291,0,0,0,.794.794h0l7.7,3.773h0a1.319,1.319,0,0,0,1.418-.227l6.709-6.141a3.347,3.347,0,0,0,1.05-2.936l-.95-6.709a4.766,4.766,0,0,1,.723-3.248l3.064-4.751a4.326,4.326,0,0,1,3.617-1.971h4.085a2.425,2.425,0,0,0,2.439-1.475l3.716-9.928a2.028,2.028,0,0,0-.879-2.439h-.156l-5.134-2.51a2,2,0,0,1,0-.652Zm-24.678-4.808a13.275,13.275,0,0,1,5.5-2.411,14.183,14.183,0,0,1,1.418,5.375c.837,8.992-4.453,20.509-11.829,25.742a14.31,14.31,0,0,1-5.4,2.482,13.7,13.7,0,0,1-1.56-5.46C198.515,103.156,203.805,91.625,211.124,86.406Z" transform="translate(27.477 -11.577)" opacity="0.3"/>
      <path id="Path_375" data-name="Path 375" d="M189.823,99.482l-8.51,8.623-7.843-4.042a3.673,3.673,0,0,1,.865-1.418l5.673-5.9a3.873,3.873,0,0,0,.837-1.3Z" transform="translate(27.503 5.273)" opacity="0.2"/>
      <path id="Path_376" data-name="Path 376" d="M193.694,81.534l-.17.964h-7.361L179,78.371a2.837,2.837,0,0,1,.766-.1h4.255a3.177,3.177,0,0,0,1.815-.581Z" transform="translate(29.816 -2.152)" opacity="0.2"/>
      <path id="Path_377" data-name="Path 377" d="M203.723,63.7,200.4,66.959h0l-5.872,5.787-7.772-4.255h0a4.255,4.255,0,0,1,1.007-1.659l6.6-6.666a1.3,1.3,0,0,1,1.418-.3h0l.241.113Z" transform="translate(33.062 -9.646)" opacity="0.2"/>
      <path id="Path_378" data-name="Path 378" d="M219.047,59.856h-7.73L203.63,55.8h0a2.383,2.383,0,0,1,1.915-.624l5.035.638a1.787,1.787,0,0,1,.624.2h0Z" transform="translate(40.119 -11.577)" opacity="0.2"/>
      <path id="Path_379" data-name="Path 379" d="M235.221,86.245l5.531-5.588a3.517,3.517,0,0,0,.964-3.22L240.3,70.686a1.418,1.418,0,0,0-2.227-.794L232.4,74.615a1.532,1.532,0,0,1-2.085-.113l-1.645-1.716a4.085,4.085,0,0,1-.936-4.1l2.51-7.815a1.773,1.773,0,0,0-1.418-2.312l-5.021-.624a2.369,2.369,0,0,0-2.482,1.418l-3.73,8.51a4.439,4.439,0,0,1-2.326,2.3l-3.347,1.418a1.588,1.588,0,0,1-2.1-.894l-2.085-5.4a1.319,1.319,0,0,0-2.184-.454l-6.666,6.581a4.085,4.085,0,0,0-1.12,3.475l.95,6.07a3.12,3.12,0,0,1-.468,2.156L194.5,88.968a3.134,3.134,0,0,1-2.638,1.418h-4.255a2.95,2.95,0,0,0-2.837,1.943l-3.787,10.311a1.617,1.617,0,0,0,1.049,2.085l3.915,1.177a2.042,2.042,0,0,1,1.418,2.184l-.624,5.787a4.028,4.028,0,0,1-1.12,2.369l-5.673,5.914a3.588,3.588,0,0,0-.936,3.262l1.631,7.347a1.064,1.064,0,0,0,1.716.6l5.673-4.638a2.184,2.184,0,0,1,3.092.3l1.418,1.745a3.39,3.39,0,0,1,.624,3.078l-2.5,8.637a1.659,1.659,0,0,0,1.418,2.127l4.383.553a2.752,2.752,0,0,0,2.837-1.6l3.73-8.34a4.34,4.34,0,0,1,2.113-2.156l3.262-1.56a2.028,2.028,0,0,1,2.837,1.163L213,137.644a1.319,1.319,0,0,0,2.142.539l6.708-6.141a3.347,3.347,0,0,0,1.05-2.936l-.95-6.709a4.766,4.766,0,0,1,.723-3.248l3.064-4.751a4.326,4.326,0,0,1,3.617-1.971h4.085a2.425,2.425,0,0,0,2.326-1.574l3.716-9.928a2.042,2.042,0,0,0-1.418-2.666l-3.376-.908a2.057,2.057,0,0,1-1.518-2.127l.355-5.092a6.127,6.127,0,0,1,1.7-3.886ZM211.89,117.816c-7.361,5.219-14.013,2.156-14.85-6.836s4.453-20.509,11.814-25.728,14.027-2.156,14.864,6.836S219.251,112.6,211.89,117.816Z" transform="translate(29.788 -10.423)" fill="#35a7ff"/>
      <path id="Path_380" data-name="Path 380" d="M139.887,183.179a10.382,10.382,0,0,1,2.993-6.609l9.588-9.673a6.241,6.241,0,0,0,1.659-5.6L151.7,149.608a2.354,2.354,0,0,0-1.234-1.617h0l-13.587-6.623-.326-.17a2.34,2.34,0,0,0-2.4.369l-3.957,3.262,4.042-12.282a3.049,3.049,0,0,0-1.56-3.688h0l-13.559-6.638h0a2.836,2.836,0,0,0-1.078-.355l-8.723-1.106A4.1,4.1,0,0,0,106,121.824h0a3.886,3.886,0,0,0-.979,1.418l-6.467,14.736a7.475,7.475,0,0,1-2.964,3.418l-.454-1.206a2.34,2.34,0,0,0-1.206-1.262h0L80.6,132.4l-.425-.2h0a2.284,2.284,0,0,0-2.468.511L66.277,144.275a7.205,7.205,0,0,0-1.73,2.837,7.29,7.29,0,0,0-.227,3.134l1.645,10.524a5.39,5.39,0,0,1-.794,3.73l-6.51,10.141a5.035,5.035,0,0,1-1.418,1.489,5.333,5.333,0,0,1-3.134,1.007H46.733a4.5,4.5,0,0,0-1.319.184,5.078,5.078,0,0,0-3.475,3.163l-6.553,17.885a2.837,2.837,0,0,0,1.248,3.361h0l9.673,4.737a3.333,3.333,0,0,1,.1,1.3L45.329,217.8a7.091,7.091,0,0,1-.5,1.858,6.836,6.836,0,0,1-1.39,2.156l-9.928,10.24a6.283,6.283,0,0,0-1.6,5.673l2.837,12.765a1.858,1.858,0,0,0,1.078,1.291h0l13.516,6.609h0a1.858,1.858,0,0,0,2.071-.184l4.383-3.617-3.673,12.765a2.283,2.283,0,0,0-.113.865h0a2.922,2.922,0,0,0,1.674,2.567h0L66.83,277.17h0a2.836,2.836,0,0,0,1.418.553l7.6.95a4.794,4.794,0,0,0,4.964-2.837L87.282,261.4a7.531,7.531,0,0,1,3.149-3.432l.326.95a2.283,2.283,0,0,0,1.418,1.418h0l13.36,6.553h0a2.269,2.269,0,0,0,2.51-.383l11.63-10.637a5.857,5.857,0,0,0,1.773-5.007l-1.659-11.63a8.3,8.3,0,0,1,1.248-5.673l5.319-8.226a7.446,7.446,0,0,1,6.255-3.4H139.7a4.255,4.255,0,0,0,3.971-2.837l6.453-17.133A3.517,3.517,0,0,0,148.6,197.7h-.085l-.255-.128-8.907-4.34a3.446,3.446,0,0,1-.113-1.149ZM97.2,174.854a23.274,23.274,0,0,1,9.517-4.255,24.565,24.565,0,0,1,2.567,9.347c1.418,15.6-7.73,35.457-20.494,44.577a24.466,24.466,0,0,1-9.361,4.255,23.785,23.785,0,0,1-2.709-9.446c-1.447-15.474,7.73-35.429,20.494-44.478Z" transform="translate(-31.77 15.85)" fill="#35a7ff"/>
      <path id="Path_381" data-name="Path 381" d="M139.887,183.179a10.382,10.382,0,0,1,2.993-6.609l9.588-9.673a6.241,6.241,0,0,0,1.659-5.6L151.7,149.608a2.354,2.354,0,0,0-1.234-1.617h0l-13.587-6.623-.326-.17a2.34,2.34,0,0,0-2.4.369l-3.957,3.262,4.042-12.282a3.049,3.049,0,0,0-1.56-3.688h0l-13.559-6.638h0a2.836,2.836,0,0,0-1.078-.355l-8.723-1.106A4.1,4.1,0,0,0,106,121.824h0a3.886,3.886,0,0,0-.979,1.418l-6.467,14.736a7.475,7.475,0,0,1-2.964,3.418l-.454-1.206a2.34,2.34,0,0,0-1.206-1.262h0L80.6,132.4l-.425-.2h0a2.284,2.284,0,0,0-2.468.511L66.277,144.275a7.205,7.205,0,0,0-1.73,2.837,7.29,7.29,0,0,0-.227,3.134l1.645,10.524a5.39,5.39,0,0,1-.794,3.73l-6.51,10.141a5.035,5.035,0,0,1-1.418,1.489,5.333,5.333,0,0,1-3.134,1.007H46.733a4.5,4.5,0,0,0-1.319.184,5.078,5.078,0,0,0-3.475,3.163l-6.553,17.885a2.837,2.837,0,0,0,1.248,3.361h0l9.673,4.737a3.333,3.333,0,0,1,.1,1.3L45.329,217.8a7.091,7.091,0,0,1-.5,1.858,6.836,6.836,0,0,1-1.39,2.156l-9.928,10.24a6.283,6.283,0,0,0-1.6,5.673l2.837,12.765a1.858,1.858,0,0,0,1.078,1.291h0l13.516,6.609h0a1.858,1.858,0,0,0,2.071-.184l4.383-3.617-3.673,12.765a2.283,2.283,0,0,0-.113.865h0a2.922,2.922,0,0,0,1.674,2.567h0L66.83,277.17h0a2.836,2.836,0,0,0,1.418.553l7.6.95a4.794,4.794,0,0,0,4.964-2.837L87.282,261.4a7.531,7.531,0,0,1,3.149-3.432l.326.95a2.283,2.283,0,0,0,1.418,1.418h0l13.36,6.553h0a2.269,2.269,0,0,0,2.51-.383l11.63-10.637a5.857,5.857,0,0,0,1.773-5.007l-1.659-11.63a8.3,8.3,0,0,1,1.248-5.673l5.319-8.226a7.446,7.446,0,0,1,6.255-3.4H139.7a4.255,4.255,0,0,0,3.971-2.837l6.453-17.133A3.517,3.517,0,0,0,148.6,197.7h-.085l-.255-.128-8.907-4.34a3.446,3.446,0,0,1-.113-1.149ZM97.2,174.854a23.274,23.274,0,0,1,9.517-4.255,24.565,24.565,0,0,1,2.567,9.347c1.418,15.6-7.73,35.457-20.494,44.577a24.466,24.466,0,0,1-9.361,4.255,23.785,23.785,0,0,1-2.709-9.446c-1.447-15.474,7.73-35.429,20.494-44.478Z" transform="translate(-31.77 15.85)" opacity="0.3"/>
      <path id="Path_382" data-name="Path 382" d="M60.2,197.54,45.5,212.517,32,205.426a6.255,6.255,0,0,1,1.418-2.525l9.928-10.24a6.836,6.836,0,0,0,1.418-2.241Z" transform="translate(-31.674 45.003)" opacity="0.2"/>
      <path id="Path_383" data-name="Path 383" d="M66.97,166.4l-.3,1.674H53.908L41.37,160.981a4.5,4.5,0,0,1,1.319-.184h7.418a5.333,5.333,0,0,0,3.134-1.007Z" transform="translate(-27.754 32.19)" opacity="0.2"/>
      <path id="Path_384" data-name="Path 384" d="M84.272,135.524,78.6,141.2h0l-10.169,10-13.46-7.432h0a7.2,7.2,0,0,1,1.73-2.837l11.431-11.559a2.283,2.283,0,0,1,2.468-.511h0l.425.2Z" transform="translate(-22.065 19.183)" opacity="0.2"/>
      <path id="Path_385" data-name="Path 385" d="M110.889,128.865H97.472L84.14,121.774h0a4.1,4.1,0,0,1,3.319-1.064l8.723,1.106a2.837,2.837,0,0,1,1.078.355h0Z" transform="translate(-9.864 15.829)" opacity="0.2"/>
      <path id="Path_386" data-name="Path 386" d="M138.867,174.614l9.588-9.673a6.241,6.241,0,0,0,1.659-5.6l-2.425-11.687a2.4,2.4,0,0,0-3.872-1.418l-9.928,8.184a2.652,2.652,0,0,1-3.6-.213l-2.837-2.978a7.091,7.091,0,0,1-1.617-7.091l4.482-13.616a3.064,3.064,0,0,0-2.525-4l-8.723-1.092a4.141,4.141,0,0,0-4.255,2.439l-6.453,14.722a7.7,7.7,0,0,1-4.042,3.985l-5.8,2.454a2.751,2.751,0,0,1-3.787-1.5l-3.617-9.375a2.312,2.312,0,0,0-3.787-.794L75.938,148.943a7.006,7.006,0,0,0-1.943,6l1.631,10.524a5.4,5.4,0,0,1-.794,3.73l-6.5,10.141a5.389,5.389,0,0,1-4.567,2.5H56.436a5.12,5.12,0,0,0-4.794,3.361L45.09,203.037a2.837,2.837,0,0,0,1.8,3.6L53.6,208.71a3.517,3.517,0,0,1,2.482,3.773L55.018,222.51a6.921,6.921,0,0,1-1.929,4.1l-9.928,10.24a6.184,6.184,0,0,0-1.617,5.673l2.837,12.765a1.858,1.858,0,0,0,2.993,1.035l9.73-8.1a3.8,3.8,0,0,1,5.361.525l2.482,3.035a5.858,5.858,0,0,1,1.092,5.319l-4.354,14.963a2.922,2.922,0,0,0,2.439,3.7l7.6.95a4.794,4.794,0,0,0,4.964-2.837l6.467-14.438a7.545,7.545,0,0,1,3.659-3.73l5.673-2.695a3.5,3.5,0,0,1,4.822,2l2.993,8.637a2.3,2.3,0,0,0,3.716.936l11.63-10.637a5.858,5.858,0,0,0,1.773-5.049l-1.659-11.63a8.3,8.3,0,0,1,1.248-5.673l5.319-8.226a7.446,7.446,0,0,1,6.255-3.4h7.091a4.255,4.255,0,0,0,3.971-2.837L146.1,200a3.532,3.532,0,0,0-2.383-4.624l-5.843-1.574a3.56,3.56,0,0,1-2.638-3.7l.638-8.808A10.382,10.382,0,0,1,138.867,174.614ZM98.432,229.3c-12.765,9.049-24.281,3.744-25.728-11.829s7.716-35.457,20.48-44.577,24.281-3.744,25.742,11.829S111.2,220.255,98.432,229.3Z" transform="translate(-27.744 17.806)" fill="#35a7ff"/>
      <path id="Path_387" data-name="Path 387" d="M184.86,75.92a8.51,8.51,0,0,1,2.468-5.446l7.9-7.985a5.035,5.035,0,0,0,1.418-4.609l-2-9.63a1.929,1.929,0,0,0-1.007-1.333h0l-11.2-5.475-.269-.128a1.943,1.943,0,0,0-1.971.3l-3.262,2.681,3.333-10.112a2.51,2.51,0,0,0-1.291-3.035h0l-11.19-5.475h0a2.354,2.354,0,0,0-.894-.284l-7.191-.908a3.376,3.376,0,0,0-2.737.879h0a3.206,3.206,0,0,0-.808,1.12l-5.333,12.141a6.141,6.141,0,0,1-2.439,2.837L148,40.462a1.787,1.787,0,0,0-.993-1.035h0L136,34.066l-.355-.184h0a1.858,1.858,0,0,0-2.028.425l-9.432,9.531a5.872,5.872,0,0,0-1.418,2.354,6.07,6.07,0,0,0-.184,2.581L124,57.454a4.354,4.354,0,0,1-.652,3.078L117.987,68.9a4.113,4.113,0,0,1-1.149,1.22,4.454,4.454,0,0,1-2.6.837H108.13a4.056,4.056,0,0,0-1.092.142,4.255,4.255,0,0,0-2.837,2.61L98.7,88.387a2.283,2.283,0,0,0,1.021,2.837h0l7.985,3.9a3.4,3.4,0,0,1,.085,1.078l-.908,8.269a5.192,5.192,0,0,1-.4,1.532,5.5,5.5,0,0,1-1.191,1.844l-8.2,8.51a5.12,5.12,0,0,0-1.22,2.085,5.035,5.035,0,0,0-.1,2.6l2.312,10.5a1.532,1.532,0,0,0,.879,1.064h0l11.134,5.46h0a1.532,1.532,0,0,0,1.716-.156l3.617-2.978L112.4,145.4a2.454,2.454,0,0,0-.1.709h0a2.4,2.4,0,0,0,1.418,2.113h0l10.836,5.276h0a2.539,2.539,0,0,0,1.12.454l6.269.78a3.929,3.929,0,0,0,4.085-2.3l5.347-11.9a6.184,6.184,0,0,1,2.581-2.837l.284.78a1.858,1.858,0,0,0,1.135,1.149h0l11.006,5.39h0a1.915,1.915,0,0,0,2.071-.312l9.573-8.779a4.737,4.737,0,0,0,1.5-4.255l-1.418-9.588a6.723,6.723,0,0,1,1.021-4.652l4.383-6.779a6.141,6.141,0,0,1,5.163-2.837h5.829a3.489,3.489,0,0,0,3.276-2.283l5.29-14.268a2.837,2.837,0,0,0-1.248-3.5h-.071l-.213-.113-7.347-3.574a3.546,3.546,0,0,1-.085-.95Zm-35.2-6.865a19.331,19.331,0,0,1,7.857-3.461,20.565,20.565,0,0,1,2.113,7.7c1.191,12.765-6.368,29.288-16.892,36.748a20.083,20.083,0,0,1-7.716,3.56,19.459,19.459,0,0,1-2.241-7.8C131.6,92.968,139.134,76.516,149.658,69.055Z" transform="translate(-5.048 -24.422)" fill="#35a7ff"/>
      <path id="Path_388" data-name="Path 388" d="M184.86,75.92a8.51,8.51,0,0,1,2.468-5.446l7.9-7.985a5.035,5.035,0,0,0,1.418-4.609l-2-9.63a1.929,1.929,0,0,0-1.007-1.333h0l-11.2-5.475-.269-.128a1.943,1.943,0,0,0-1.971.3l-3.262,2.681,3.333-10.112a2.51,2.51,0,0,0-1.291-3.035h0l-11.19-5.475h0a2.354,2.354,0,0,0-.894-.284l-7.191-.908a3.376,3.376,0,0,0-2.737.879h0a3.206,3.206,0,0,0-.808,1.12l-5.333,12.141a6.141,6.141,0,0,1-2.439,2.837L148,40.462a1.787,1.787,0,0,0-.993-1.035h0L136,34.066l-.355-.184h0a1.858,1.858,0,0,0-2.028.425l-9.432,9.531a5.872,5.872,0,0,0-1.418,2.354,6.07,6.07,0,0,0-.184,2.581L124,57.454a4.354,4.354,0,0,1-.652,3.078L117.987,68.9a4.113,4.113,0,0,1-1.149,1.22,4.454,4.454,0,0,1-2.6.837H108.13a4.056,4.056,0,0,0-1.092.142,4.255,4.255,0,0,0-2.837,2.61L98.7,88.387a2.283,2.283,0,0,0,1.021,2.837h0l7.985,3.9a3.4,3.4,0,0,1,.085,1.078l-.908,8.269a5.192,5.192,0,0,1-.4,1.532,5.5,5.5,0,0,1-1.191,1.844l-8.2,8.51a5.12,5.12,0,0,0-1.22,2.085,5.035,5.035,0,0,0-.1,2.6l2.312,10.5a1.532,1.532,0,0,0,.879,1.064h0l11.134,5.46h0a1.532,1.532,0,0,0,1.716-.156l3.617-2.978L112.4,145.4a2.454,2.454,0,0,0-.1.709h0a2.4,2.4,0,0,0,1.418,2.113h0l10.836,5.276h0a2.539,2.539,0,0,0,1.12.454l6.269.78a3.929,3.929,0,0,0,4.085-2.3l5.347-11.9a6.184,6.184,0,0,1,2.581-2.837l.284.78a1.858,1.858,0,0,0,1.135,1.149h0l11.006,5.39h0a1.915,1.915,0,0,0,2.071-.312l9.573-8.779a4.737,4.737,0,0,0,1.5-4.255l-1.418-9.588a6.723,6.723,0,0,1,1.021-4.652l4.383-6.779a6.141,6.141,0,0,1,5.163-2.837h5.829a3.489,3.489,0,0,0,3.276-2.283l5.29-14.268a2.837,2.837,0,0,0-1.248-3.5h-.071l-.213-.113-7.347-3.574a3.546,3.546,0,0,1-.085-.95Zm-35.2-6.865a19.331,19.331,0,0,1,7.857-3.461,20.565,20.565,0,0,1,2.113,7.7c1.191,12.765-6.368,29.288-16.892,36.748a20.083,20.083,0,0,1-7.716,3.56,19.459,19.459,0,0,1-2.241-7.8C131.6,92.968,139.134,76.516,149.658,69.055Z" transform="translate(-5.048 -24.422)" opacity="0.3"/>
      <path id="Path_389" data-name="Path 389" d="M119.157,87.74,107.03,100.051,95.84,94.278a5.12,5.12,0,0,1,1.22-2.085l8.2-8.51a5.5,5.5,0,0,0,1.191-1.844Z" transform="translate(-4.969 -0.416)" opacity="0.2"/>
      <path id="Path_390" data-name="Path 390" d="M124.71,62.1l-.241,1.418h-10.51l-10.339-5.9a4.056,4.056,0,0,1,1.092-.142h6.113a4.454,4.454,0,0,0,2.6-.837Z" transform="translate(-1.715 -10.957)" opacity="0.2"/>
      <path id="Path_391" data-name="Path 391" d="M139,36.667l-4.737,4.666h0l-8.382,8.254L114.78,43.461h0a5.872,5.872,0,0,1,1.418-2.354l9.432-9.531a1.858,1.858,0,0,1,2.028-.425h0l.355.184Z" transform="translate(2.953 -21.676)" opacity="0.2"/>
      <path id="Path_392" data-name="Path 392" d="M160.9,31.138H149.862l-10.992-5.8h0a3.376,3.376,0,0,1,2.737-.879l7.191.908a2.354,2.354,0,0,1,.894.284h0Z" transform="translate(13.03 -24.43)" opacity="0.2"/>
      <path id="Path_393" data-name="Path 393" d="M183.988,68.847l7.9-7.985a5.035,5.035,0,0,0,1.418-4.609l-2-9.63a1.971,1.971,0,0,0-3.177-1.135l-8.212,6.751a2.213,2.213,0,0,1-2.978-.17l-2.354-2.454a5.8,5.8,0,0,1-1.418-5.843l3.7-11.233a2.525,2.525,0,0,0-2.071-3.262l-7.191-.908a3.39,3.39,0,0,0-3.546,2l-5.319,12.155A6.326,6.326,0,0,1,155.41,45.8l-4.78,2.028a2.269,2.269,0,0,1-2.993-1.276l-2.993-7.73a1.9,1.9,0,0,0-3.12-.652l-9.418,9.545a5.773,5.773,0,0,0-1.6,4.95l1.333,8.68a4.425,4.425,0,0,1-.638,3.078l-5.361,8.368a4.482,4.482,0,0,1-3.758,2.057h-6.113A4.255,4.255,0,0,0,112.01,77.5L106.62,92.22a2.3,2.3,0,0,0,1.418,2.978l5.673,1.7a2.922,2.922,0,0,1,2.057,3.106l-.908,8.269a5.673,5.673,0,0,1-1.589,3.376l-8.2,8.439a5.163,5.163,0,0,0-1.319,4.68l2.312,10.5a1.532,1.532,0,0,0,2.468.851l8.056-6.638a3.12,3.12,0,0,1,4.411.44l2.042,2.5a4.794,4.794,0,0,1,.894,4.383l-3.56,12.339a2.4,2.4,0,0,0,2,3.049l6.269.78a3.929,3.929,0,0,0,4.085-2.3l5.347-11.9a6.2,6.2,0,0,1,3.007-3.092l4.666-2.213a2.837,2.837,0,0,1,3.971,1.659l2.482,7.091a1.886,1.886,0,0,0,3.064.78l9.574-8.779a4.737,4.737,0,0,0,1.5-4.255l-1.418-9.588a6.723,6.723,0,0,1,1.021-4.652l4.383-6.779a6.141,6.141,0,0,1,5.163-2.837h5.829a3.489,3.489,0,0,0,3.276-2.283l5.29-14.268a2.837,2.837,0,0,0-1.957-3.815l-4.822-1.291a2.964,2.964,0,0,1-2.17-3.064l.525-7.262A8.51,8.51,0,0,1,183.988,68.847Zm-33.33,45.088c-10.524,7.46-20.026,3.092-21.274-9.758s6.354-29.288,16.878-36.748,20.026-3.092,21.274,9.758S161.182,106.474,150.658,113.934Z" transform="translate(-1.709 -22.795)" fill="#35a7ff"/>
    </g>
    <g id="freepik--Character--inject-25" transform="translate(292.726 353.198)">
      <path id="Path_394" data-name="Path 394" d="M327.377,278.819l-5.758-3.858h0l-10.2,26.565-10.878,5.886-2.581-3.73,12.992-26.309-5.758-3.872c-.511.255-1.021.511-1.518.808-11.97,6.893-21.686,23.671-21.7,37.486,0,6.4,2.057,11.049,5.475,13.488l.582.383,4.581,3.021,1.56,1.064-.156,120.839c-7.247,8.212-12.254,19.643-12.268,29.557,0,5.205,1.418,9.247,3.716,11.885h0l5.772,3.872-1.106-16.041,5.546-14.452,2.085-1.12,8.793-4.766,5.588,8.1-6.1,15.36-4.085,10.5,5.772,3.872,4.851-12.24c7.418-8.24,12.58-19.856,12.594-29.912a20.083,20.083,0,0,0-2.085-9.375l2.142-.326-5.418-3.617h0a11.006,11.006,0,0,0-7.091-2.127l.156-123.094c7.347-8.226,12.453-19.856,12.467-29.784a16.27,16.27,0,0,0-.113-2.383Z" transform="translate(-204.782 -273.443)" fill="#35a7ff"/>
      <path id="Path_395" data-name="Path 395" d="M316.763,442.446l.156-123.094c7.361-8.24,12.467-19.785,12.481-29.784,0-5.205-1.418-9.233-3.73-11.885l-10.2,26.579-10.85,5.9-5.6-8.113,10.24-25.8c-.5.255-1.007.511-1.5.808-11.97,6.893-21.7,23.671-21.714,37.486,0,9.928,4.964,15.6,12.212,15.474L298.1,453.324c-7.247,8.226-12.254,19.658-12.268,29.572,0,5.205,1.418,9.233,3.716,11.885l10.2-26.565,10.864-5.9,5.6,8.113L305.927,496.2c.5-.255.993-.511,1.5-.808,11.97-6.893,21.686-23.671,21.7-37.486C329.187,447.906,324.11,442.2,316.763,442.446Z" transform="translate(-203.076 -272.293)" fill="#35a7ff"/>
      <path id="Path_396" data-name="Path 396" d="M314.385,396.058h0l-5.418-3.617h0a10.264,10.264,0,0,0-1.347-.851v2.6A11.076,11.076,0,0,1,314.385,396.058Z" transform="translate(-193.961 -224.046)" fill="#35a7ff"/>
      <path id="Path_397" data-name="Path 397" d="M314.385,396.058h0l-5.418-3.617h0a10.264,10.264,0,0,0-1.347-.851v2.6A11.076,11.076,0,0,1,314.385,396.058Z" transform="translate(-193.961 -224.046)" opacity="0.4"/>
      <path id="Path_398" data-name="Path 398" d="M285.493,404.662l5.39-13.559-5.6-8.113-2.255,1.22,2.085,3.021-6.1,15.36L274.87,413.03l5.772,3.872,4.851-12.24Z" transform="translate(-177.748 -192.995)" fill="#35a7ff"/>
      <path id="Path_399" data-name="Path 399" d="M287.976,325.682l4.581,3.021h.085c-3.106-2.539-4.978-7.021-4.964-13.077,0-13.814,9.744-30.593,21.714-37.486.5-.3,1.007-.553,1.5-.808h0l-5.758-3.872c-.511.255-1.021.511-1.518.808-11.97,6.893-21.686,23.671-21.7,37.486,0,6.4,2.057,11.049,5.475,13.488Z" transform="translate(-204.711 -273.46)" opacity="0.2"/>
      <path id="Path_400" data-name="Path 400" d="M291.778,250.09l-10.2,26.565,5.758,3.872,10.2-26.565Z" transform="translate(-174.942 -248.587)" opacity="0.2"/>
      <path id="Path_401" data-name="Path 401" d="M284.119,268.82l5.758,3.872-10.85,5.886L275.51,273.5Z" transform="translate(-177.481 -240.752)" opacity="0.4"/>
      <path id="Path_402" data-name="Path 402" d="M296.338,314.558a11.219,11.219,0,0,1-5.872-1.418h.1l-.156,120.839,5.772,3.858Z" transform="translate(-201.16 -256.862)" opacity="0.4"/>
      <path id="Path_403" data-name="Path 403" d="M281.76,427.917c0,5.205,1.418,9.247,3.716,11.885h0l5.772,3.872c-2.354-2.652-3.73-6.68-3.716-11.885,0-9.928,5.021-21.345,12.268-29.571l-5.772-3.858C286.781,406.572,281.774,418,281.76,427.917Z" transform="translate(-204.778 -221.215)" opacity="0.2"/>
      <path id="Path_404" data-name="Path 404" d="M282.7,387.231l5.772,3.872-5.6-8.113-2.255,1.22Z" transform="translate(-175.343 -192.995)" opacity="0.4"/>
      <path id="Path_405" data-name="Path 405" d="M274.87,411.779l5.772,3.872,10.24-25.8-5.772-3.872Z" transform="translate(-177.748 -191.744)" opacity="0.2"/>
      <path id="Path_406" data-name="Path 406" d="M284.385,432.425s-5.375-4.6-7.46-4.822-5.673,3.361-2.652,9.573c.851,1.716,4.255,3.588,6.453,6.893s4.1,5.8,7.4,5.347,3.744-2.326,3.532-4.482a49.94,49.94,0,0,0-1.191-5.858Z" transform="translate(-208.396 -208.987)" fill="#37474f"/>
      <path id="Path_407" data-name="Path 407" d="M288.3,446.647c-3.4.468-5.418-2.1-7.63-5.5s-5.787-5.333-6.666-7.091a13.231,13.231,0,0,1-.851-2.213,11.134,11.134,0,0,0,1.106,3.588c.851,1.716,4.255,3.588,6.453,6.893s4.1,5.8,7.4,5.347c2.539-.355,3.376-1.532,3.546-3.035A3.787,3.787,0,0,1,288.3,446.647Z" transform="translate(-208.38 -207.21)" fill="#263238"/>
      <path id="Path_408" data-name="Path 408" d="M279.155,436.558a.553.553,0,0,1-.255,0,.539.539,0,0,1-.213-.709,8.354,8.354,0,0,1,5.049-3.957.525.525,0,1,1,.241,1.007,7.489,7.489,0,0,0-4.368,3.446.525.525,0,0,1-.454.213Z" transform="translate(-206.088 -207.205)" fill="#ebebeb"/>
      <path id="Path_409" data-name="Path 409" d="M277.774,435.27a.483.483,0,0,1-.241-.071.511.511,0,0,1-.213-.709,8.411,8.411,0,0,1,5.049-3.957.539.539,0,0,1,.624.4.525.525,0,0,1-.4.624,7.39,7.39,0,0,0-4.354,3.432.539.539,0,0,1-.468.284Z" transform="translate(-206.664 -207.761)" fill="#ebebeb"/>
      <path id="Path_410" data-name="Path 410" d="M276.152,433.943a.538.538,0,0,1-.241,0,.525.525,0,0,1-.213-.709,8.41,8.41,0,0,1,5.049-3.957.525.525,0,1,1,.227,1.021,7.446,7.446,0,0,0-4.354,3.432A.525.525,0,0,1,276.152,433.943Z" transform="translate(-207.34 -208.292)" fill="#ebebeb"/>
      <path id="Path_411" data-name="Path 411" d="M264.314,442.16s-7.191-2.326-9.332-1.688-4.255,5.673,1.3,10.538c1.56,1.347,5.673,1.773,9.219,4.156s6.425,4.042,9.5,2.227,2.837-3.872,2.283-6.127c-.695-2.837-1.262-4.964-1.262-4.964Z" transform="translate(-216.918 -203.645)" fill="#37474f"/>
      <path id="Path_412" data-name="Path 412" d="M274.492,454.106c-3.177,1.858-6.2.156-9.8-2.3s-7.9-2.837-9.5-4.255a15,15,0,0,1-1.759-1.844A12.183,12.183,0,0,0,256,448.8c1.56,1.347,5.673,1.773,9.219,4.156s6.425,4.042,9.5,2.227c2.369-1.418,2.709-2.837,2.255-4.439C276.931,451.894,276.321,453.043,274.492,454.106Z" transform="translate(-216.629 -201.408)" fill="#263238"/>
      <path id="Path_413" data-name="Path 413" d="M259.829,448.276h0a.511.511,0,0,1-.468-.567,8.95,8.95,0,0,1,3.333-5.971.539.539,0,0,1,.738.128.511.511,0,0,1-.128.723,8.028,8.028,0,0,0-2.908,5.219.525.525,0,0,1-.567.468Z" transform="translate(-214.149 -203.109)" fill="#ebebeb"/>
      <path id="Path_414" data-name="Path 414" d="M261.929,448.954h0a.525.525,0,0,1-.468-.567,8.949,8.949,0,0,1,3.347-5.957.511.511,0,0,1,.723.113.539.539,0,0,1-.113.738,7.9,7.9,0,0,0-2.837,5.205.539.539,0,0,1-.653.468Z" transform="translate(-213.27 -202.823)" fill="#ebebeb"/>
      <path id="Path_415" data-name="Path 415" d="M257.9,447.563h0a.525.525,0,0,1-.468-.567,8.949,8.949,0,0,1,3.347-5.957.525.525,0,0,1,.737.128.539.539,0,0,1-.128.723,7.942,7.942,0,0,0-2.908,5.205.525.525,0,0,1-.582.468Z" transform="translate(-214.956 -203.403)" fill="#ebebeb"/>
      <path id="Path_416" data-name="Path 416" d="M299.227,346.05l5.673,5.957,9.928-9.8v-10.3s4.255,5.3,4.255,10.666-1.418,6.326-3.007,9.432-7.886,15.6-12.212,12.892A152.075,152.075,0,0,1,291.1,354.688Z" transform="translate(-200.871 -249.011)" fill="#ffa8a7"/>
      <path id="Path_417" data-name="Path 417" d="M284.06,329s3.56,0,7.985,5.177S303.9,347.651,303.9,347.651a11.346,11.346,0,0,1-8.51,10.893l-10.354-8.893Z" transform="translate(-203.816 -250.228)" fill="#35a7ff"/>
      <path id="Path_418" data-name="Path 418" d="M284.06,329s3.56,0,7.985,5.177S303.9,347.651,303.9,347.651a11.346,11.346,0,0,1-8.51,10.893l-10.354-8.893Z" transform="translate(-203.816 -250.228)" fill="#fff" opacity="0.4"/>
      <path id="Path_419" data-name="Path 419" d="M290.467,458.637c.638-7.091,2.042-18.3,2.624-23.515a67.468,67.468,0,0,0-.567-19.856,16.212,16.212,0,0,1-.227-4.68c1.418-14.183,2.34-37.2,1.56-42.265l-19.927,4.255s2.439,32.266,3.5,43,5.106,43.059,5.106,43.059A7.219,7.219,0,0,0,290.467,458.637Z" transform="translate(-208.053 -233.78)" fill="#455a64"/>
      <path id="Path_420" data-name="Path 420" d="M285.068,439.288a3.758,3.758,0,0,0,2.525-2.042c0-1.12.128-3.007.34-5.276a7.219,7.219,0,0,1-7.943.085l.709,6A5.134,5.134,0,0,0,285.068,439.288Z" transform="translate(-205.519 -207.156)" fill="#ffa8a7"/>
      <path id="Path_421" data-name="Path 421" d="M274.227,470.474c.808-10.793,2.383-31.7,2.581-34.975a52.134,52.134,0,0,0-.681-10.85,16.6,16.6,0,0,1,0-5.858l8.751-48.577-24.111-.355-1.574,50.9a13.162,13.162,0,0,0,.071,1.971l5.106,47.428h0S269.419,474.346,274.227,470.474Z" transform="translate(-214.222 -233.136)" fill="#455a64"/>
      <path id="Path_422" data-name="Path 422" d="M268.7,449.8a4.553,4.553,0,0,0,3.532-2.482l.5-6.425c-4.808,3.872-9.786-.312-9.786-.312h0l.766,7.091S264.77,450.153,268.7,449.8Z" transform="translate(-212.651 -203.554)" fill="#ffa8a7"/>
      <path id="Path_423" data-name="Path 423" d="M271.666,332.244l-5.673,1.943-6.113,28.848.3,25.629s4.368,3.475,21.4,3.475c9.573,0,15.8-3.6,18.154-7.446L298.2,369.275s1.56-15.261,1.56-22.806.34-13.715-5.56-17.459l-5.248.425Z" transform="translate(-213.931 -250.224)" fill="#35a7ff"/>
      <path id="Path_424" data-name="Path 424" d="M271.666,332.244l-5.673,1.943-6.113,28.848.3,25.629s4.368,3.475,21.4,3.475c9.573,0,15.8-3.6,18.154-7.446L298.2,369.275s1.56-15.261,1.56-22.806.34-13.715-5.56-17.459l-5.248.425Z" transform="translate(-213.931 -250.224)" fill="#fff" opacity="0.2"/>
      <path id="Path_425" data-name="Path 425" d="M264.7,313.78l-2.837,5.673a.638.638,0,0,0,.369.894l3.376,1.12Z" transform="translate(-213.131 -256.594)" fill="#f28f8f"/>
      <path id="Path_426" data-name="Path 426" d="M267.875,307.12s-4.255,2.326-4.255,15.6c0,7.333.511,12.013,4.255,11.715s14.722-1.659,14.722-1.659V307.12Z" transform="translate(-212.366 -259.38)" fill="#ffa8a7"/>
      <path id="Path_427" data-name="Path 427" d="M266.808,327.018c1.347-.1,3.56-.34,5.886-.61V324.99a30.781,30.781,0,0,1-6.524,1.971A3.212,3.212,0,0,0,266.808,327.018Z" transform="translate(-211.299 -251.905)" fill="#f28f8f"/>
      <path id="Path_428" data-name="Path 428" d="M249.22,301.2v8.368h11.446V297.81Z" transform="translate(-188.478 -228.625)" fill="#ffa8a7"/>
      <path id="Path_429" data-name="Path 429" d="M271.188,328.782a17.615,17.615,0,0,0,7.418.894c3.319-.581,4.028-2.6,4.028-2.6s1.078-.071,2.837,3.163a8.411,8.411,0,0,1-6.694,4.255,25.856,25.856,0,0,1-10.566-1.5S269.784,328.385,271.188,328.782Z" transform="translate(-210.446 -251.031)" fill="#35a7ff"/>
      <path id="Path_430" data-name="Path 430" d="M271.188,328.782a17.615,17.615,0,0,0,7.418.894c3.319-.581,4.028-2.6,4.028-2.6s1.078-.071,2.837,3.163a8.411,8.411,0,0,1-6.694,4.255,25.856,25.856,0,0,1-10.566-1.5S269.784,328.385,271.188,328.782Z" transform="translate(-210.446 -251.031)" fill="#fff" opacity="0.4"/>
      <path id="Path_431" data-name="Path 431" d="M232.372,363.206l-4.553-2.837a.709.709,0,0,1,0-1.206l20.026-11.743a1.659,1.659,0,0,1,1.716,0l24.962,15.7a1.3,1.3,0,0,1,0,2.241L253.93,376.708a1.957,1.957,0,0,1-2.042-.1Z" transform="translate(-227.482 -242.623)" fill="#37474f"/>
      <path id="Path_432" data-name="Path 432" d="M232.372,362.445l-4.553-2.837a.709.709,0,0,1,0-1.206l20.026-11.743a1.688,1.688,0,0,1,1.716,0l24.962,15.715a1.3,1.3,0,0,1,0,2.241L253.93,375.961a1.929,1.929,0,0,1-2.042-.113Z" transform="translate(-227.482 -242.939)" fill="#e0e0e0"/>
      <path id="Path_433" data-name="Path 433" d="M206.4,329.5v1.858h3.163Z" transform="translate(-206.389 -215.37)" fill="#e0e0e0"/>
      <path id="Path_434" data-name="Path 434" d="M232.372,361.223l-4.553-2.908a.695.695,0,0,1,0-1.191l20.026-11.743a1.659,1.659,0,0,1,1.716,0L274.524,361.1a1.3,1.3,0,0,1,0,2.241L253.93,374.683a1.929,1.929,0,0,1-2.042-.1Z" transform="translate(-227.482 -243.476)" fill="#fff"/>
      <path id="Path_435" data-name="Path 435" d="M233.477,356.738a.51.51,0,0,1-.454-.255.5.5,0,0,1,.184-.709l13.658-8.013a.525.525,0,0,1,.709.184.539.539,0,0,1-.184.723l-13.658,7.971a.439.439,0,0,1-.255.1Z" transform="translate(-225.198 -242.409)" fill="#35a7ff"/>
      <path id="Path_436" data-name="Path 436" d="M235.838,358.281a.539.539,0,0,1-.454-.255.511.511,0,0,1,.184-.723l13.658-8a.5.5,0,0,1,.709.184.525.525,0,0,1-.184.709l-13.658,8.013A.581.581,0,0,1,235.838,358.281Z" transform="translate(-224.211 -241.768)" fill="#35a7ff"/>
      <path id="Path_437" data-name="Path 437" d="M238.156,359.811a.511.511,0,0,1-.454-.255.525.525,0,0,1,.184-.723l13.658-8a.5.5,0,0,1,.709.184.525.525,0,0,1-.184.709l-13.658,8.013a.582.582,0,0,1-.255.071Z" transform="translate(-223.239 -241.128)" fill="#35a7ff"/>
      <path id="Path_438" data-name="Path 438" d="M240.554,361.338a.511.511,0,0,1-.454-.255.525.525,0,0,1,.184-.709l13.658-8.013a.525.525,0,0,1,.709.184.539.539,0,0,1-.184.723l-13.658,8a.44.44,0,0,1-.255.071Z" transform="translate(-222.233 -240.485)" fill="#35a7ff"/>
      <path id="Path_439" data-name="Path 439" d="M242.917,362.881a.525.525,0,0,1-.269-.979l13.658-8a.5.5,0,0,1,.709.184.511.511,0,0,1-.184.709l-13.658,8.013a.525.525,0,0,1-.255.071Z" transform="translate(-221.248 -239.844)" fill="#35a7ff"/>
      <path id="Path_440" data-name="Path 440" d="M266.776,349.91l-2.95,10.254s-4.695,1.418-9.928,3.12a58.981,58.981,0,0,1-9.815,2.34,33.453,33.453,0,0,1-2.581-3.56c-.823-1.418-1.518-3.517-2.17-2.837s-1.617,2.95,0,6.439a6.721,6.721,0,0,1-3.546-.468,55.318,55.318,0,0,1-4.723-3.092s-1.248,3.376,0,5.319,4.936,4.751,13.233,4.751,27.4-1.617,29.118-4.539,4.851-16.708,4.851-16.708Z" transform="translate(-226.216 -241.481)" fill="#ffa8a7"/>
      <path id="Path_441" data-name="Path 441" d="M268.1,332.66s5.489,2.227,4.978,10.552-4.978,19.572-4.978,19.572-8.368,0-13.247-5.219l4.907-18.041a8.51,8.51,0,0,1,5.12-5.673C265.771,333.483,266.835,333.142,268.1,332.66Z" transform="translate(-216.035 -248.697)" fill="#35a7ff"/>
      <path id="Path_442" data-name="Path 442" d="M268.1,332.66s5.489,2.227,4.978,10.552-4.978,19.572-4.978,19.572-8.368,0-13.247-5.219l4.907-18.041a8.51,8.51,0,0,1,5.12-5.673C265.771,333.483,266.835,333.142,268.1,332.66Z" transform="translate(-216.035 -248.697)" fill="#fff" opacity="0.4"/>
      <path id="Path_443" data-name="Path 443" d="M267.174,302.663s-4.524-.6-5.673,2.525c-.723,1.943,1.588,3.446,1.588,3.446s-2.922,2.751,1.418,3.6a2.837,2.837,0,0,0,3.517,3.234s-.5,2.964,3.319,4c0,0-1.929,5.134,1.688,5.205h3.418l-1.418,3.943a11.077,11.077,0,0,0,10.439,6.113,51.661,51.661,0,0,1,2.95-5.389c.936-1.22,5.829-7.474,5.829-12.438s-1.915-7.9-4.553-8.51a11.347,11.347,0,0,0-3.787-4.524c-2.666-1.8-8.269-3.4-11.431-1.206,0,0-2.837-3.673-4.751-3.673S267.174,300.947,267.174,302.663Z" transform="translate(-213.311 -262.781)" fill="#263238"/>
      <path id="Path_444" data-name="Path 444" d="M269.592,318.635s-.326-5.205,4.056-5.205,3.347,9.148-2.028,9.148Z" transform="translate(-209.87 -256.741)" fill="#ffa8a7"/>
    </g>
  </g>
</svg>
