<svg id="visual" viewBox="0 0 900 150" width="900" height="150" xmlns="http://www.w3.org/2000/svg" xmlns:xlink="http://www.w3.org/1999/xlink" version="1.1"><rect x="0" y="0" width="900" height="150" fill="#fff"></rect><path d="M0 87L21.5 84.2C43 81.3 86 75.7 128.8 70.8C171.7 66 214.3 62 257.2 64.3C300 66.7 343 75.3 385.8 78.5C428.7 81.7 471.3 79.3 514.2 74.3C557 69.3 600 61.7 642.8 58C685.7 54.3 728.3 54.7 771.2 54.5C814 54.3 857 53.7 878.5 53.3L900 53L900 0L878.5 0C857 0 814 0 771.2 0C728.3 0 685.7 0 642.8 0C600 0 557 0 514.2 0C471.3 0 428.7 0 385.8 0C343 0 300 0 257.2 0C214.3 0 171.7 0 128.8 0C86 0 43 0 21.5 0L0 0Z" fill="#ffffff"></path><path d="M0 48L21.5 47.2C43 46.3 86 44.7 128.8 45.2C171.7 45.7 214.3 48.3 257.2 49.3C300 50.3 343 49.7 385.8 51.3C428.7 53 471.3 57 514.2 54.8C557 52.7 600 44.3 642.8 45.5C685.7 46.7 728.3 57.3 771.2 59.3C814 61.3 857 54.7 878.5 51.3L900 48L900 0L878.5 0C857 0 814 0 771.2 0C728.3 0 685.7 0 642.8 0C600 0 557 0 514.2 0C471.3 0 428.7 0 385.8 0C343 0 300 0 257.2 0C214.3 0 171.7 0 128.8 0C86 0 43 0 21.5 0L0 0Z" fill="#c6e1f8"></path><path d="M0 41L21.5 40.7C43 40.3 86 39.7 128.8 35.3C171.7 31 214.3 23 257.2 21.5C300 20 343 25 385.8 29.5C428.7 34 471.3 38 514.2 39.2C557 40.3 600 38.7 642.8 34.5C685.7 30.3 728.3 23.7 771.2 20.5C814 17.3 857 17.7 878.5 17.8L900 18L900 0L878.5 0C857 0 814 0 771.2 0C728.3 0 685.7 0 642.8 0C600 0 557 0 514.2 0C471.3 0 428.7 0 385.8 0C343 0 300 0 257.2 0C214.3 0 171.7 0 128.8 0C86 0 43 0 21.5 0L0 0Z" fill="#86c3f1"></path></svg>